<?xml version="1.0" standalone="no"?>
<!DOCTYPE svg PUBLIC "-//W3C//DTD SVG 20010904//EN"
 "http://www.w3.org/TR/2001/REC-SVG-20010904/DTD/svg10.dtd">
<svg version="1.0" xmlns="http://www.w3.org/2000/svg"
 width="512.000000pt" height="512.000000pt" viewBox="0 0 512.000000 512.000000"
 preserveAspectRatio="xMidYMid meet">
<metadata>
Created by potrace 1.14, written by Peter Selinger 2001-2017
</metadata>
<g transform="translate(0.000000,512.000000) scale(0.100000,-0.100000)"
fill="#000000" stroke="none">
<path d="M4975 4781 c-27 -17 -136 -131 -157 -163 -4 -7 -8 -24 -8 -39 0 -31
-48 -108 -86 -138 -37 -29 -53 -58 -54 -96 0 -17 -16 -56 -36 -88 -32 -52 -39
-57 -71 -57 -60 0 -123 -43 -174 -118 -44 -66 -46 -67 -96 -72 -77 -8 -111
-48 -147 -171 -9 -31 -27 -76 -41 -100 -14 -24 -25 -51 -25 -58 0 -26 -48 -85
-84 -105 -23 -12 -43 -35 -57 -62 -25 -52 -84 -106 -159 -144 -54 -27 -187
-105 -236 -137 l-25 -16 26 69 c14 38 35 85 46 104 10 19 34 64 51 100 17 36
40 71 50 78 52 37 93 186 70 252 -11 30 -10 32 24 52 116 68 63 252 -85 295
-102 29 -230 -8 -270 -79 -13 -23 -23 -28 -56 -28 -59 0 -282 -131 -698 -408
-135 -90 -192 -123 -202 -116 -7 5 -53 36 -101 69 -49 34 -129 93 -179 132
-49 39 -130 96 -180 127 -104 66 -329 230 -429 313 -185 155 -314 233 -383
233 -61 -1 -119 -32 -143 -79 -19 -37 -20 -52 -14 -149 8 -127 21 -156 113
-247 49 -48 61 -66 61 -91 0 -31 21 -85 81 -211 16 -34 29 -78 29 -98 0 -39
60 -187 89 -220 18 -20 74 -155 64 -155 -9 0 -188 112 -253 158 -36 26 -122
105 -192 177 -99 102 -131 142 -149 185 -44 109 -88 186 -123 217 -29 25 -36
38 -36 67 0 22 -15 67 -39 114 -22 43 -56 121 -76 173 -20 52 -40 99 -45 104
-4 6 -12 25 -18 43 -18 54 -65 121 -89 128 -23 6 -73 64 -73 85 0 26 -45 82
-76 95 -18 8 -38 22 -43 32 -14 26 -85 56 -115 48 -32 -8 -54 -31 -63 -63 -8
-34 12 -165 42 -273 13 -47 31 -125 40 -175 26 -140 70 -257 157 -420 104
-193 105 -194 134 -207 15 -7 46 -51 87 -122 70 -126 150 -228 287 -370 153
-158 395 -325 544 -376 l49 -16 -120 -95 c-186 -146 -340 -265 -439 -337 -50
-37 -124 -92 -165 -123 -41 -31 -86 -59 -101 -63 -30 -7 -31 -8 -86 -81 -33
-44 -38 -60 -45 -130 -19 -191 -14 -208 86 -255 57 -27 69 -29 133 -23 84 7
162 45 170 83 3 14 7 30 9 36 2 6 21 14 42 17 46 8 110 53 119 83 7 25 66 78
229 201 66 50 153 123 193 162 40 39 83 76 95 83 20 10 118 84 205 155 18 14
34 24 35 22 4 -5 78 -249 102 -334 9 -33 23 -80 31 -105 8 -25 17 -85 20 -135
3 -49 12 -110 20 -135 7 -25 20 -76 28 -115 8 -38 28 -119 44 -180 18 -67 34
-163 41 -245 7 -74 17 -155 23 -180 6 -25 12 -108 13 -185 2 -77 8 -185 14
-240 6 -55 18 -174 26 -265 9 -92 22 -181 31 -200 15 -35 55 -67 148 -118 30
-16 53 -21 86 -18 172 16 239 76 227 207 -4 46 0 77 14 122 10 33 19 70 19 82
0 12 4 35 9 51 5 16 21 97 36 179 14 83 35 179 45 215 10 36 32 119 49 185 55
221 166 649 191 735 10 36 33 106 50 155 18 50 40 122 50 160 10 39 28 95 40
125 12 30 29 75 37 100 8 25 20 59 27 77 l11 31 70 -45 c273 -175 343 -224
367 -255 17 -22 44 -42 70 -51 24 -9 102 -42 173 -75 72 -33 155 -65 185 -72
30 -7 62 -16 70 -21 50 -30 221 -89 257 -89 11 0 42 -10 69 -22 82 -36 238
-27 313 18 14 9 41 35 59 57 33 40 34 44 30 112 -4 55 -12 86 -41 146 -32 65
-43 79 -77 94 -22 10 -40 21 -40 26 0 4 -15 16 -32 27 -24 14 -58 21 -123 25
-62 3 -113 13 -165 32 -70 25 -578 274 -719 353 l-65 36 33 14 c61 24 150 91
157 117 5 19 19 28 74 44 88 27 162 78 289 202 58 55 117 107 131 114 25 13
81 80 124 150 11 17 40 55 66 85 107 126 299 424 447 695 24 44 50 83 58 88
19 10 45 60 45 87 0 11 10 40 22 63 11 23 27 65 34 92 15 53 19 232 6 251 -24
36 -91 44 -137 15z m66 -139 c-1 -43 -7 -60 -21 -71 -11 -7 -20 -21 -20 -31 0
-14 -10 -19 -40 -22 -35 -3 -39 -1 -34 14 3 10 1 18 -5 18 -6 0 -11 5 -11 11
0 5 5 7 10 4 6 -3 10 1 10 9 0 15 17 21 47 17 6 -1 13 13 15 31 2 19 8 32 15
31 6 -1 15 11 18 28 10 46 19 26 16 -39z m-191 -246 c0 -8 -7 -16 -15 -20 -17
-6 -18 -4 -9 18 8 20 24 21 24 2z m-30 -40 c0 -3 -4 -8 -10 -11 -5 -3 -10 -1
-10 4 0 6 5 11 10 11 6 0 10 -2 10 -4z m-3590 -51 c0 -9 9 -15 25 -15 16 0 25
-6 25 -15 0 -9 6 -15 13 -14 30 4 47 -2 47 -16 0 -8 11 -17 25 -21 14 -3 25
-12 25 -20 0 -8 7 -14 15 -14 8 0 15 -7 15 -15 0 -8 7 -15 15 -15 8 0 15 -6
15 -14 0 -8 11 -17 25 -20 14 -4 25 -13 25 -21 0 -8 7 -15 15 -15 8 0 15 -7
15 -15 0 -9 9 -15 25 -15 15 0 25 -6 25 -14 0 -8 14 -17 30 -21 17 -4 30 -13
30 -21 0 -9 5 -12 10 -9 13 8 42 -14 34 -26 -3 -5 4 -9 15 -9 12 0 21 -7 21
-15 0 -9 9 -15 25 -15 18 0 25 -5 25 -20 0 -11 7 -20 15 -20 8 0 15 -7 15 -15
0 -10 10 -15 30 -15 20 0 30 -5 30 -15 0 -8 7 -15 15 -15 8 0 20 -9 27 -20 8
-12 24 -20 40 -20 16 0 27 -5 25 -12 -1 -6 7 -14 18 -16 11 -2 28 -13 38 -23
10 -10 27 -19 38 -19 11 0 17 -5 14 -10 -3 -6 1 -13 9 -16 9 -3 16 -12 16 -19
0 -8 12 -15 28 -17 15 -2 26 -8 25 -15 -2 -7 4 -13 12 -13 8 0 15 -9 15 -20 0
-16 7 -20 30 -20 20 0 30 -5 30 -15 0 -8 5 -15 10 -15 6 0 10 -7 10 -15 0 -8
9 -16 20 -16 11 -1 26 -2 33 -3 6 -1 25 -16 42 -33 16 -18 36 -33 42 -33 7 0
13 -4 13 -8 0 -14 50 -36 76 -34 15 1 24 -3 24 -13 0 -14 9 -17 45 -17 8 0 18
0 23 1 11 2 9 65 -3 73 -5 4 0 8 13 8 12 0 25 7 28 15 4 8 12 15 20 15 8 0 14
5 14 10 0 6 5 10 10 10 6 0 10 -7 10 -15 0 -23 85 -21 95 3 13 30 12 52 -2 52
-10 0 -8 6 6 21 13 14 27 20 40 16 12 -3 21 -1 21 4 0 5 -6 9 -12 10 -8 0 -7
3 2 6 8 4 20 13 26 21 9 12 13 12 26 -2 18 -18 48 -22 48 -6 0 6 14 10 30 10
20 0 30 5 30 15 0 8 7 15 16 15 25 0 46 28 51 70 4 31 10 40 25 40 11 0 16 5
13 10 -4 6 7 10 24 10 21 0 31 5 31 15 0 8 7 15 15 15 8 0 15 5 15 10 0 6 14
10 30 10 21 0 30 5 30 16 0 10 5 14 15 10 9 -3 18 1 21 9 4 8 12 15 20 15 8 0
14 4 14 9 0 5 16 19 35 31 27 16 39 19 54 11 26 -14 44 -14 35 0 -4 7 -1 10 7
7 14 -5 69 44 69 62 0 5 9 10 20 10 11 0 20 5 20 10 0 6 11 10 25 10 15 0 24
5 23 13 -2 9 13 11 56 9 68 -4 96 -23 91 -64 -2 -16 1 -28 6 -28 5 0 9 -5 9
-10 0 -6 -3 -9 -7 -9 -25 4 -43 -3 -43 -16 0 -8 -7 -15 -16 -15 -10 0 -14 -5
-10 -16 3 -8 2 -12 -4 -9 -6 3 -10 -1 -10 -9 0 -9 -7 -16 -15 -16 -10 0 -15
-11 -15 -35 0 -26 3 -33 15 -29 11 5 14 0 13 -17 -2 -15 2 -23 10 -21 20 4 14
-46 -8 -68 -11 -11 -20 -24 -20 -28 0 -4 -12 -8 -26 -7 -30 0 -34 -11 -43
-117 0 -10 -8 -18 -16 -18 -9 0 -15 -9 -15 -25 0 -14 -7 -28 -15 -31 -8 -4
-15 -14 -15 -25 0 -10 -9 -23 -20 -29 -15 -8 -20 -21 -20 -50 0 -32 -4 -40
-18 -40 -11 0 -19 -7 -19 -17 1 -78 -3 -93 -24 -93 -18 0 -20 -4 -14 -30 4
-20 3 -30 -5 -30 -6 0 -8 -4 -5 -10 3 -5 1 -10 -5 -10 -15 0 -29 -42 -20 -59
10 -18 81 -22 98 -5 7 8 22 14 32 14 10 0 22 5 25 10 3 6 19 10 36 10 18 0 29
5 29 14 0 10 8 13 25 10 18 -3 25 0 25 11 0 8 4 15 9 15 4 0 6 -11 3 -25 -2
-14 -11 -25 -18 -25 -8 0 -14 -10 -14 -24 0 -15 -7 -26 -20 -29 -11 -3 -20
-12 -20 -21 0 -19 16 -21 23 -3 2 6 8 9 12 5 4 -4 -1 -15 -11 -26 -14 -14 -28
-18 -56 -14 -21 2 -38 8 -38 12 0 4 -6 10 -13 13 -9 3 -13 -5 -13 -28 0 -19 3
-32 7 -30 3 3 15 -5 25 -18 11 -12 13 -17 4 -11 -8 6 -21 9 -27 8 -7 -1 -17
-2 -22 -3 -13 -1 -9 -71 4 -70 22 3 32 -2 33 -13 0 -7 4 -23 8 -36 6 -21 4
-22 -19 -17 -30 8 -47 -16 -47 -64 0 -28 3 -31 33 -31 35 0 61 -12 55 -26 -1
-5 8 -11 22 -12 13 -2 33 -10 44 -18 11 -8 28 -14 38 -14 9 0 22 -9 28 -20 6
-12 21 -20 35 -20 16 0 25 -6 25 -15 0 -11 11 -15 36 -15 27 0 37 -5 41 -20 4
-15 14 -20 39 -20 21 0 37 -6 40 -14 3 -8 18 -18 34 -21 16 -3 31 -13 34 -21
3 -8 16 -14 30 -14 14 0 28 -5 32 -12 5 -7 3 -8 -6 -3 -9 5 -11 4 -6 -3 4 -7
20 -12 37 -12 18 0 33 -7 41 -20 8 -12 24 -20 40 -20 16 0 28 -5 28 -10 0 -11
29 -25 73 -35 15 -3 25 -10 22 -16 -4 -5 -3 -9 2 -8 22 4 42 -3 63 -21 15 -13
37 -20 64 -20 29 0 47 -6 59 -20 9 -11 25 -20 34 -21 32 -1 56 -7 62 -16 3 -4
26 -15 51 -24 31 -11 46 -22 48 -37 2 -13 13 -23 31 -27 16 -3 44 -20 62 -36
28 -25 31 -32 19 -39 -8 -5 -10 -10 -5 -10 6 0 17 6 24 12 11 10 13 10 7 1 -4
-7 -2 -13 3 -13 12 0 14 -42 5 -77 -8 -27 -37 -30 -56 -5 -17 22 -78 54 -78
41 0 -6 -7 -3 -16 6 -10 10 -24 13 -38 9 -32 -10 -39 -20 -31 -45 9 -26 8 -29
-2 -30 -5 -1 -16 -5 -25 -10 -14 -8 -19 -4 -24 16 -3 14 -10 25 -15 25 -5 0
-9 4 -9 9 0 5 9 7 20 4 23 -6 24 -3 8 32 -8 18 -14 22 -20 13 -5 -8 -8 -2 -8
17 0 20 -3 26 -9 17 -5 -9 -15 1 -32 33 -13 25 -30 45 -36 45 -7 0 -13 7 -13
15 0 22 -40 41 -51 24 -8 -12 -13 -6 -10 13 1 10 -72 20 -159 20 -44 0 -83 4
-86 9 -3 5 -26 9 -52 9 -48 0 -109 29 -95 45 5 4 0 5 -9 2 -11 -4 -23 1 -33
16 -8 12 -15 16 -15 9 0 -6 -4 -12 -10 -12 -5 0 -7 6 -4 13 2 7 -4 22 -14 33
-11 11 -19 31 -18 44 1 20 -4 25 -24 24 -14 -1 -33 -4 -42 -8 -26 -12 -67 20
-60 46 4 18 2 20 -14 14 -33 -13 -39 -12 -36 9 2 12 0 16 -5 9 -9 -12 -61 -28
-81 -25 -8 1 -19 -5 -26 -14 -18 -26 -44 -9 -40 26 3 21 -1 31 -14 35 -9 3
-24 10 -32 15 -8 5 -25 14 -38 19 -13 5 -20 14 -17 20 3 6 -1 7 -9 4 -11 -4
-16 0 -16 15 0 12 -4 21 -10 21 -5 0 -10 -4 -10 -10 0 -5 -5 -10 -11 -10 -5 0
-8 4 -4 10 7 12 -25 50 -44 50 -11 0 -11 3 2 18 12 13 14 21 6 29 -13 13 -51
5 -42 -10 4 -6 0 -8 -11 -4 -10 4 -19 1 -22 -7 -3 -8 -19 -20 -36 -27 -16 -7
-34 -24 -39 -38 -7 -18 -12 -22 -18 -13 -12 20 -91 -7 -91 -30 0 -10 7 -18 17
-18 15 0 15 -1 -1 -13 -11 -8 -20 -31 -23 -60 -5 -38 -9 -47 -25 -47 -17 0
-18 6 -13 68 4 37 6 79 7 95 0 15 6 27 13 27 7 0 15 10 19 23 9 35 7 99 -3 92
-5 -3 -12 -1 -16 5 -4 6 -11 8 -16 5 -5 -4 -9 3 -9 13 0 11 -6 25 -14 31 -8 7
-11 22 -8 38 3 18 1 24 -7 19 -8 -5 -8 0 -1 18 5 14 7 39 4 56 -5 22 -3 30 7
30 9 0 14 11 14 30 0 17 0 30 0 31 0 0 -45 6 -99 12 -73 9 -100 16 -102 27 -2
8 -7 31 -12 50 l-8 34 -81 -1 c-45 -1 -91 -6 -102 -12 -14 -8 -20 -8 -23 0 -2
7 -45 13 -107 15 -87 4 -105 2 -115 -12 -7 -9 -28 -17 -48 -18 -35 -1 -36 0
-41 39 -3 21 -13 45 -23 52 -10 8 -14 19 -10 30 6 15 8 15 16 3 8 -12 10 -10
10 8 0 12 -6 22 -12 22 -8 1 -5 6 6 15 10 7 15 18 11 24 -3 6 -2 11 4 11 11 0
11 169 -1 176 -4 3 -8 19 -8 35 0 25 -5 30 -30 36 -16 3 -30 10 -30 15 0 7 -5
6 -13 -1 -8 -6 -17 -8 -20 -4 -4 3 -7 -1 -7 -10 0 -9 -3 -16 -7 -16 -21 3 -32
-3 -36 -18 -4 -14 -5 -14 -6 3 -1 28 -38 38 -67 19 -19 -12 -24 -12 -37 3 -8
9 -12 23 -9 31 3 10 -2 12 -21 7 -19 -4 -29 -1 -36 11 -8 15 -12 16 -22 6 -7
-7 -27 -13 -45 -13 -24 0 -33 -5 -39 -22 -4 -13 -8 -25 -9 -28 -18 -45 -24
-85 -15 -103 10 -18 4 -181 -7 -199 -3 -4 -2 -30 2 -58 l7 -50 42 0 c55 0 82
-9 63 -21 -9 -6 -7 -9 10 -9 12 0 22 -6 22 -12 0 -24 44 -54 75 -52 54 3 76
15 82 45 3 18 10 26 19 22 18 -7 19 -63 0 -63 -13 0 -26 -66 -26 -137 0 -18
-4 -33 -9 -33 -5 0 -7 -9 -4 -20 3 -11 10 -20 16 -20 5 0 0 -8 -11 -19 -12
-10 -22 -29 -22 -42 0 -19 -2 -21 -10 -9 -6 9 -10 10 -10 3 0 -6 4 -14 10 -18
5 -3 7 -12 3 -20 -3 -8 0 -15 6 -15 7 0 9 -10 7 -25 -3 -14 -1 -23 5 -20 5 4
9 -1 9 -9 0 -9 4 -16 10 -16 5 0 9 -16 8 -35 -1 -20 4 -41 10 -47 7 -7 12 -22
12 -35 0 -13 6 -26 14 -29 10 -4 12 -16 9 -45 -5 -32 -3 -39 11 -39 11 0 16
-9 16 -29 0 -17 5 -33 10 -36 6 -4 10 -28 9 -53 -1 -26 2 -56 8 -67 5 -11 9
-37 7 -58 -1 -23 4 -43 13 -53 9 -9 13 -24 9 -38 -4 -16 -1 -26 9 -30 8 -3 15
-17 15 -31 0 -14 5 -25 11 -25 6 0 10 -18 9 -42 -3 -66 -1 -80 10 -73 5 3 10
-3 10 -14 0 -15 -5 -19 -16 -14 -14 5 -14 3 1 -27 9 -18 15 -46 13 -62 -3 -19
0 -32 9 -35 7 -3 13 -11 13 -19 0 -8 6 -14 13 -14 10 0 12 -12 6 -52 -7 -58
-5 -68 16 -68 8 0 11 -7 8 -19 -3 -10 0 -28 6 -39 8 -14 8 -21 0 -24 -12 -4
10 -88 23 -88 15 0 8 -41 -7 -46 -20 -8 -19 -44 1 -44 12 0 14 -7 9 -30 -5
-23 -3 -30 9 -30 12 0 14 -13 13 -62 l-2 -63 -37 1 c-20 0 -35 -3 -32 -8 3 -4
12 -8 20 -8 8 0 14 -7 14 -15 0 -8 -5 -14 -12 -13 -21 5 -39 50 -33 80 6 25 4
29 -24 34 -17 4 -29 10 -26 14 3 4 7 24 9 44 4 27 1 36 -9 36 -12 0 -11 7 5
33 24 39 26 73 4 94 -11 12 -14 25 -9 47 4 17 9 50 10 74 3 35 1 42 -14 42
-10 0 -26 9 -36 20 -10 11 -22 17 -28 13 -6 -3 -8 10 -5 35 4 43 -4 52 -43 52
-11 0 -19 7 -19 18 0 30 16 45 43 40 22 -4 26 -1 30 26 4 23 0 36 -14 48 -28
24 -25 40 6 28 29 -11 33 1 9 24 -8 9 -11 16 -6 16 6 0 8 9 5 20 -3 11 -9 20
-14 20 -5 0 -9 5 -9 10 0 6 12 10 27 10 l27 0 -22 20 c-12 11 -26 20 -32 20
-6 0 -10 10 -8 23 2 15 -4 25 -20 32 -12 5 -20 16 -17 23 3 9 -1 11 -15 7 -14
-4 -22 -1 -26 10 -6 13 -8 14 -15 3 -6 -9 -9 -7 -9 10 0 12 -4 22 -10 22 -5 0
-10 7 -10 15 0 8 -6 15 -14 15 -14 0 -30 29 -21 38 3 3 5 0 5 -6 0 -7 5 -12
11 -12 6 0 9 6 6 13 -2 6 -15 12 -28 12 -21 0 -24 5 -27 43 -2 27 -8 42 -17
42 -8 0 -11 7 -8 20 3 11 0 27 -7 34 -6 8 -10 23 -9 33 4 26 -10 63 -24 63 -7
0 -6 4 3 10 10 6 15 29 16 73 0 35 5 70 9 77 5 8 4 11 -2 7 -6 -4 -10 4 -10
18 0 13 -7 30 -14 37 -17 16 -62 19 -70 5 -10 -15 -40 0 -46 22 -3 14 -14 19
-38 19 -25 0 -32 -4 -28 -14 3 -8 2 -14 -1 -14 -4 0 -11 12 -16 26 -7 18 -15
24 -26 20 -9 -3 -27 -6 -41 -6 -24 0 -25 -3 -20 -36 5 -31 2 -41 -22 -65 -16
-15 -31 -25 -35 -22 -3 3 2 12 12 20 16 13 15 14 -8 9 -14 -3 -30 -6 -37 -6
-7 0 -10 -7 -7 -15 4 -10 0 -15 -14 -15 -12 0 -24 -5 -28 -11 -3 -6 -16 -9
-28 -7 -12 3 -28 -1 -34 -9 -16 -16 -22 -16 -46 2 -18 13 -14 41 5 30 5 -4 9
1 9 9 0 9 5 16 10 16 6 0 21 11 34 25 13 14 29 25 35 25 6 0 14 7 17 15 4 8
13 15 21 15 8 0 11 5 8 10 -3 6 3 10 14 10 12 0 21 7 21 15 0 10 10 15 31 15
28 0 30 2 27 33 -3 29 -6 32 -37 33 -19 0 -37 7 -42 16 -5 9 -29 19 -56 23
-27 4 -55 13 -63 20 -8 7 -32 15 -52 19 -36 6 -36 7 -27 38 5 21 5 36 -1 42
-14 14 -13 66 1 66 8 0 8 5 -1 15 -10 12 -9 15 5 15 13 0 16 6 11 25 -5 18 -2
25 9 25 8 0 15 -8 15 -17 0 -13 9 -19 31 -20 17 -1 37 -9 43 -18 10 -14 27
-19 84 -24 6 0 12 -7 12 -14 0 -13 13 -17 57 -17 17 0 21 -5 16 -18 -5 -14 -3
-15 8 -4 17 16 29 15 29 -2 0 -9 11 -14 33 -13 30 1 33 4 34 34 0 22 -4 33
-13 33 -8 0 -14 6 -14 14 0 8 -5 16 -10 18 -6 2 -12 22 -13 46 0 23 -4 42 -7
42 -3 0 -7 10 -7 22 -1 13 -9 27 -17 33 -9 7 -12 21 -9 38 5 25 3 27 -26 27
-28 0 -31 3 -31 30 0 31 -17 39 -38 18 -9 -9 -12 -3 -12 30 0 27 -5 44 -16 50
-9 5 -15 12 -15 15 3 25 -1 37 -11 34 -7 -1 -12 6 -10 16 2 10 -3 17 -12 17
-11 0 -13 8 -9 35 5 29 3 35 -12 35 -11 0 -15 5 -12 14 3 8 -1 22 -8 33 -8 10
-15 26 -15 36 0 10 -4 15 -10 12 -5 -3 -10 -4 -10 -1 0 2 -3 12 -7 22 -5 14
-3 16 11 11 12 -5 16 -3 14 5 -3 7 -15 15 -28 18 -20 5 -21 7 -6 19 17 15 22
61 6 61 -5 0 -10 8 -10 17 0 9 -8 25 -17 35 -13 14 -14 21 -5 30 15 15 15 28
1 28 -5 0 -7 -4 -4 -10 3 -6 -1 -7 -9 -4 -14 5 -14 9 -1 34 8 16 15 40 15 53
0 12 5 28 12 35 9 9 8 22 -2 54 -8 24 -13 48 -12 54 1 6 -9 19 -23 28 -14 9
-25 26 -25 39 l-1 22 -12 -23 c-7 -12 -16 -20 -20 -16 -4 4 -1 14 5 23 10 12
8 12 -8 -1 -15 -13 -23 -15 -32 -6 -8 8 -15 8 -25 0 -11 -9 -17 -6 -27 13 -7
14 -20 25 -28 25 -10 0 -13 7 -8 23 3 12 6 30 6 40 0 12 8 17 30 17 17 0 30 5
30 10 0 6 5 10 10 10 6 0 10 -7 10 -15z m-900 -10 c0 -8 -2 -15 -4 -15 -2 0
-6 7 -10 15 -3 8 -1 15 4 15 6 0 10 -7 10 -15z m4450 -15 c0 -5 -5 -10 -11
-10 -5 0 -7 5 -4 10 3 6 8 10 11 10 2 0 4 -4 4 -10z m-4340 -27 c0 -22 -2 -25
-10 -13 -13 20 -13 40 0 40 6 0 10 -12 10 -27z m-46 -8 c8 -9 13 -22 10 -30
-4 -8 -1 -15 6 -15 7 0 10 -6 7 -14 -3 -7 0 -20 6 -27 7 -7 3 -6 -9 4 -11 9
-27 17 -34 17 -11 0 -11 3 -2 12 17 17 15 29 -3 22 -11 -5 -15 1 -15 20 0 29
11 33 34 11z m66 -35 c0 -5 -2 -10 -4 -10 -3 0 -8 5 -11 10 -3 6 -1 10 4 10 6
0 11 -4 11 -10z m30 -51 c0 -16 5 -29 10 -29 6 0 10 -7 10 -15 0 -8 7 -15 15
-15 8 0 15 -9 15 -20 0 -17 -7 -20 -42 -20 -42 0 -43 0 -43 35 0 19 3 35 8 35
4 0 7 16 7 36 0 21 4 33 10 29 6 -3 10 -19 10 -36z m4227 -36 c-9 -49 -18 -64
-37 -58 -9 3 -23 -1 -29 -9 -7 -8 -21 -13 -31 -11 -12 2 -22 -6 -30 -26 -7
-16 -16 -29 -21 -29 -5 0 -8 -3 -8 -7 1 -5 0 -11 -1 -15 -1 -5 -3 -14 -4 -20
0 -7 -11 -14 -23 -16 -23 -3 -27 -21 -26 -119 0 -12 -5 -21 -10 -20 -6 1 -11
-5 -12 -14 0 -8 -8 -23 -17 -33 -13 -12 -17 -29 -15 -57 2 -28 -1 -39 -10 -39
-8 0 -17 -10 -22 -21 -7 -20 -22 -25 -93 -32 -13 -1 -18 -10 -18 -29 0 -21 -5
-28 -19 -28 -21 0 -31 -19 -31 -60 0 -61 -12 -88 -45 -106 -19 -10 -36 -26
-38 -36 -4 -15 -16 -18 -66 -18 -34 0 -61 -4 -61 -10 0 -5 -11 -10 -25 -10
-18 0 -23 -4 -19 -15 4 -10 0 -15 -14 -15 -12 0 -24 -4 -27 -10 -3 -5 -2 -10
3 -10 6 0 5 -10 -1 -25 -7 -14 -16 -25 -20 -25 -5 0 -5 5 -2 10 3 6 1 10 -4
10 -15 0 -14 -13 2 -29 10 -11 8 -12 -10 -6 -19 5 -23 2 -23 -14 0 -20 -4 -21
-82 -16 -122 8 -158 15 -158 31 0 8 7 14 15 14 8 0 15 5 15 10 0 6 13 10 29
10 20 0 36 9 49 25 12 15 30 25 46 25 14 0 26 5 26 10 0 6 7 10 15 10 8 0 15
7 15 15 0 10 10 15 29 15 23 0 30 5 33 23 2 12 9 21 17 19 7 -1 15 7 18 18 3
11 12 20 19 20 9 0 14 11 14 30 0 20 5 30 15 30 8 0 15 5 15 10 0 6 7 10 15
10 8 0 15 7 15 15 0 8 4 14 9 12 11 -3 61 54 61 71 0 6 7 12 15 12 9 0 15 10
15 26 0 17 4 23 13 18 10 -6 10 -4 0 7 -18 18 -16 26 7 32 14 3 20 14 20 31 0
16 6 26 14 26 13 0 31 75 29 123 0 9 6 17 13 17 8 0 14 8 14 18 1 15 2 15 15
-2 12 -15 12 -22 3 -27 -9 -6 -7 -10 6 -15 10 -4 21 -2 26 5 4 7 10 12 14 12
20 -3 26 1 26 14 0 8 6 15 14 15 8 0 17 11 20 25 4 14 13 25 22 25 8 0 12 5 9
11 -4 6 2 13 14 16 11 3 18 9 16 14 -3 4 17 20 46 34 28 15 48 29 45 32 -3 3
6 14 20 25 24 20 42 26 77 27 9 1 23 12 29 26 16 35 41 33 35 -2z m-4129 -138
c-3 -3 -9 2 -12 12 -6 14 -5 15 5 6 7 -7 10 -15 7 -18z m46 -84 c3 -5 -3 -11
-14 -14 -20 -5 -26 3 -13 16 9 10 21 9 27 -2z m156 -256 c0 -8 -7 -15 -15 -15
-10 0 -15 -10 -15 -30 0 -16 5 -30 11 -30 5 0 8 4 4 9 -3 6 4 15 15 21 18 10
20 8 20 -19 0 -25 5 -30 30 -36 17 -4 30 -13 30 -21 0 -8 5 -14 10 -14 6 0 10
-7 10 -15 0 -8 5 -15 10 -15 16 0 47 -35 42 -48 -2 -7 3 -12 12 -12 9 0 16 -7
16 -15 0 -8 7 -15 15 -15 8 0 15 -7 15 -15 0 -17 -4 -18 -49 -9 -27 6 -31 11
-31 39 0 31 -3 34 -42 40 -24 4 -48 11 -55 17 -7 6 -14 5 -18 -2 -11 -18 -24
-1 -23 31 1 17 8 33 15 36 20 8 -3 23 -36 23 -18 0 -22 4 -18 20 3 11 1 20 -4
20 -17 0 -9 21 17 45 31 29 34 30 34 10z m1220 -304 c0 -5 16 -26 35 -47 19
-20 35 -40 35 -44 0 -8 -70 -64 -73 -59 -1 2 -12 33 -25 69 -21 61 -21 66 -5
77 20 15 33 17 33 4z m-901 -51 c12 0 21 -6 21 -14 0 -8 18 -25 40 -37 55 -31
51 -45 -10 -41 -44 4 -50 7 -50 26 0 12 -8 31 -18 42 -10 10 -21 28 -25 39 -7
19 -6 19 7 3 7 -10 23 -18 35 -18z m456 -20 c3 -5 1 -10 -4 -10 -6 0 -11 5
-11 10 0 6 2 10 4 10 3 0 8 -4 11 -10z m-305 -89 c0 -6 -9 -9 -20 -8 -11 1
-20 5 -20 9 0 4 9 8 20 8 11 0 20 -4 20 -9z m583 -11 c-6 -24 -26 -21 -31 3
-2 11 3 17 16 17 15 0 19 -5 15 -20z m-519 -35 c-3 -8 -1 -15 5 -15 15 0 14
-27 -1 -32 -7 -3 -24 -1 -38 3 -14 4 -20 8 -15 8 6 1 3 7 -5 14 -26 21 -20 33
20 35 32 2 39 0 34 -13z m693 -81 c-3 -3 -12 -4 -19 -1 -8 3 -5 6 6 6 11 1 17
-2 13 -5z m497 -134 c32 -17 72 -30 87 -30 20 0 34 -8 46 -26 9 -15 43 -39 75
-54 32 -15 77 -45 101 -66 23 -22 54 -48 68 -59 l27 -20 -18 -70 c-9 -38 -27
-89 -38 -112 -12 -23 -22 -50 -22 -59 0 -10 -13 -38 -29 -63 -39 -61 -97 -224
-107 -297 -4 -32 -15 -72 -25 -89 -11 -16 -19 -45 -19 -62 0 -28 -11 -68 -60
-219 -5 -17 -10 -38 -10 -48 0 -9 -7 -31 -16 -47 -8 -17 -20 -58 -25 -92 -11
-68 -58 -189 -71 -181 -4 3 -8 28 -8 55 0 55 -26 193 -42 223 -6 11 -14 45
-19 75 -5 31 -15 90 -23 131 -9 41 -20 106 -26 143 -5 37 -22 95 -36 129 -16
39 -29 94 -34 147 -5 51 -28 152 -56 246 -25 88 -54 184 -62 214 l-16 53 30
22 c16 11 49 39 74 62 25 22 59 46 77 53 18 7 49 26 70 42 21 16 40 29 43 29
3 0 32 -14 64 -30z m-627 -286 c2 -6 -3 -11 -12 -11 -8 0 -15 7 -15 15 0 15
22 12 27 -4z m-638 -211 c2 -1 -1 -9 -8 -17 -6 -7 -15 -33 -19 -57 -7 -42 -9
-44 -39 -41 -33 3 -113 -31 -113 -48 0 -6 -6 -10 -14 -10 -8 0 -18 -10 -22
-22 -17 -56 -57 -69 -68 -22 -10 40 -21 27 -24 -28 -2 -29 -7 -57 -13 -64 -5
-6 -7 -19 -3 -28 6 -14 -5 -21 -28 -17 -5 0 -8 -4 -8 -10 0 -6 -7 -8 -17 -4
-15 5 -16 4 -5 -6 15 -16 16 -43 0 -33 -8 5 -9 2 -5 -9 7 -20 3 -21 -23 -7
-10 5 -32 11 -49 12 -17 1 -31 6 -31 11 0 4 -5 5 -11 1 -8 -4 -7 -9 2 -15 11
-6 11 -14 2 -38 -6 -17 -9 -39 -6 -50 5 -21 -10 -34 -44 -36 -28 -1 -35 17
-27 63 6 29 3 38 -17 53 -13 10 -19 19 -12 19 7 0 10 7 7 15 -4 9 0 15 9 15 8
0 18 7 21 16 3 8 10 12 16 9 5 -3 10 1 10 9 0 9 8 16 19 16 10 0 22 7 25 16 4
10 14 14 25 11 14 -3 21 2 25 19 6 24 51 54 81 54 8 0 15 7 15 15 0 8 7 15 15
15 8 0 15 5 15 10 0 6 7 10 15 10 8 0 15 7 15 15 0 8 7 15 15 15 9 0 18 7 21
15 4 8 12 15 18 15 7 0 23 10 36 23 25 22 27 23 56 26 8 0 12 6 9 11 -3 6 5
10 19 10 18 0 24 4 20 15 -4 9 0 15 10 15 9 0 16 7 16 16 0 8 4 13 9 9 5 -3
13 -1 16 5 5 8 12 7 23 -2 10 -7 19 -14 21 -15z m1736 -33 c4 -17 2 -36 -3
-43 -5 -7 -12 -41 -15 -77 -3 -36 -6 -66 -7 -67 0 -2 -8 -3 -17 -3 -13 0 -14
-3 -5 -12 16 -16 15 -28 -3 -28 -8 0 -15 -9 -15 -19 0 -11 -5 -23 -10 -26 -6
-4 -8 -10 -6 -14 3 -4 -7 -8 -21 -9 -34 -3 -34 -3 -40 -54 -3 -24 -9 -48 -14
-53 -4 -6 -8 -26 -8 -45 0 -53 -12 -112 -29 -138 -11 -17 -12 -25 -3 -36 9
-11 9 -16 -1 -23 -16 -9 -33 -65 -44 -138 -4 -28 -15 -58 -25 -68 -13 -12 -19
-32 -19 -62 0 -47 -15 -57 -50 -35 -13 8 -13 11 2 22 12 9 18 29 20 61 1 30 6
47 14 47 14 0 24 35 26 98 1 24 4 45 8 47 4 3 5 16 2 30 -3 18 0 25 11 25 15
0 25 45 31 131 1 16 9 35 18 41 16 13 27 80 28 161 0 26 4 37 15 37 8 0 16 8
17 18 3 31 5 57 7 75 0 9 6 17 11 17 13 0 60 49 60 63 0 5 7 15 15 21 8 6 16
28 17 48 4 46 24 50 33 8z m-2055 -340 c0 -5 -4 -10 -10 -10 -5 0 -10 5 -10
10 0 6 5 10 10 10 6 0 10 -4 10 -10z m-110 -72 c0 -13 -23 -5 -28 10 -2 7 2
10 12 6 9 -3 16 -11 16 -16z m1806 -723 c-6 -61 -15 -115 -19 -122 -4 -6 -2
-13 4 -15 18 -6 -12 -48 -34 -48 -9 0 -23 -11 -29 -25 -13 -30 -38 -33 -38 -5
0 11 7 20 15 20 8 0 15 6 16 13 3 84 19 171 34 187 10 11 18 33 19 50 1 17 10
36 21 44 11 8 21 14 21 13 1 -1 -3 -52 -10 -112z m-206 -219 c0 -3 -4 -8 -10
-11 -5 -3 -10 -1 -10 4 0 6 5 11 10 11 6 0 10 -2 10 -4z m5 -78 c2 -5 3 -15 4
-23 0 -8 8 -15 16 -15 8 0 15 -5 15 -11 0 -5 -5 -7 -10 -4 -18 11 -23 -25 -6
-50 19 -29 45 -33 45 -7 1 9 4 34 7 55 5 31 3 37 -12 38 -17 1 -17 2 -1 6 9 2
17 11 17 19 0 8 4 13 9 10 9 -6 6 -85 -5 -118 -3 -11 0 -18 7 -18 7 0 4 -6 -7
-14 -19 -14 -19 -15 0 -22 19 -7 19 -8 0 -14 -15 -5 -20 -19 -24 -66 -5 -58
-6 -59 -37 -62 -32 -3 -33 -4 -32 -50 0 -38 2 -43 9 -24 11 26 28 28 46 5 9
-13 9 -22 2 -30 -7 -9 -7 -13 1 -13 6 0 11 -5 11 -11 0 -5 -5 -7 -12 -3 -7 5
-9 2 -5 -9 3 -9 2 -17 -2 -19 -5 -2 -11 -14 -15 -28 -6 -20 -5 -22 4 -10 9 12
10 10 4 -10 -8 -32 -13 -37 -22 -24 -11 17 -62 27 -62 12 0 -9 -3 -8 -10 2
-13 21 -12 26 6 45 13 12 14 19 4 30 -7 8 -10 26 -8 40 3 14 1 22 -5 18 -5 -3
-7 3 -3 14 5 14 -1 23 -19 33 -22 12 -25 20 -25 66 0 29 -4 55 -10 59 -13 8
-1 34 32 65 15 15 28 32 28 39 0 6 5 11 10 11 6 0 10 6 9 13 -2 18 12 57 22
57 4 0 6 17 3 38 -4 35 -4 35 7 12 7 -14 13 -28 14 -32z m105 -282 c0 -23 -16
-27 -17 -5 -1 10 2 19 8 19 5 0 9 -6 9 -14z m-103 -381 c8 -9 14 -17 12 -18
-2 -1 -18 -10 -36 -20 -34 -18 -48 -11 -36 20 13 34 36 41 60 18z m1 -63 c2
-7 -2 -10 -12 -6 -9 3 -16 11 -16 16 0 13 23 5 28 -10z"/>
<path d="M1550 3700 c0 -5 5 -10 10 -10 6 0 10 5 10 10 0 6 -4 10 -10 10 -5 0
-10 -4 -10 -10z"/>
<path d="M3350 3684 c0 -11 -8 -15 -32 -13 -21 2 -32 -1 -31 -8 2 -8 -12 -11
-37 -10 -22 1 -40 5 -40 9 0 13 -58 9 -62 -4 -4 -10 -11 -10 -33 0 -22 10 -31
10 -39 1 -8 -9 -7 -10 7 -6 11 4 16 3 12 -4 -4 -6 -19 -7 -35 -4 -24 5 -27 3
-26 -17 1 -26 -32 -32 -50 -9 -18 23 -44 5 -44 -30 0 -30 -1 -31 -34 -25 -32
6 -35 4 -41 -22 -3 -16 -5 -33 -4 -38 1 -5 1 -18 0 -28 -1 -18 -2 -18 -20 -2
-16 15 -19 15 -24 1 -4 -9 -1 -15 9 -15 13 0 13 -2 -1 -17 -15 -15 -15 -17 -1
-25 21 -12 11 -28 -16 -28 -17 0 -18 -3 -8 -15 6 -8 8 -20 4 -27 -15 -25 -49
-58 -60 -58 -7 0 -14 -6 -17 -12 -6 -17 10 -58 23 -58 5 0 10 -4 10 -10 0 -19
35 -50 57 -50 13 0 23 -4 23 -10 0 -11 40 -54 53 -56 4 -1 12 -2 17 -3 6 0 10
-8 10 -16 0 -9 9 -15 23 -15 12 0 30 -9 40 -20 9 -11 24 -20 32 -20 8 0 15 -7
15 -15 0 -8 9 -15 19 -15 11 0 21 -5 23 -12 3 -8 16 -5 42 10 20 12 44 22 52
22 8 0 14 5 14 10 0 6 6 10 14 10 16 0 26 21 26 53 0 12 11 32 24 44 17 16 22
30 18 48 -3 20 0 27 16 32 12 3 24 15 28 27 4 11 14 27 23 34 15 12 14 13 -1
8 -24 -7 -23 10 2 62 11 22 20 48 20 56 0 8 4 17 9 20 5 3 7 15 4 26 -3 11 0
20 6 20 7 0 11 20 11 50 0 37 5 57 20 73 15 15 20 32 18 57 -2 19 -7 33 -11
30 -5 -3 -13 3 -18 13 -12 21 -39 22 -39 1z m-106 -221 c-4 -16 -15 -37 -25
-48 -27 -30 -59 -112 -59 -151 0 -32 -38 -133 -61 -160 -9 -11 -16 -10 -37 5
-15 10 -52 34 -83 54 -30 21 -65 47 -77 60 l-22 23 48 35 c26 19 90 61 142 94
52 32 111 71 130 86 44 36 52 36 44 2z"/>
<path d="M2080 3586 c0 -9 5 -16 10 -16 6 0 10 4 10 9 0 6 -4 13 -10 16 -5 3
-10 -1 -10 -9z"/>
<path d="M3503 3085 c-9 -10 -7 -14 10 -19 26 -6 31 -5 33 11 3 16 -30 22 -43
8z"/>
<path d="M1510 3030 c0 -6 7 -10 15 -10 8 0 15 2 15 4 0 2 -7 6 -15 10 -8 3
-15 1 -15 -4z"/>
<path d="M3286 2934 c-22 -57 6 -114 56 -114 22 0 26 5 32 42 5 32 3 44 -9 50
-8 5 -15 16 -15 23 0 21 -56 20 -64 -1z"/>
<path d="M3011 2854 c0 -11 3 -14 6 -6 3 7 2 16 -1 19 -3 4 -6 -2 -5 -13z"/>
<path d="M3395 2680 c3 -5 10 -10 16 -10 5 0 9 5 9 10 0 6 -7 10 -16 10 -8 0
-12 -4 -9 -10z"/>
<path d="M3470 2680 c0 -5 10 -10 23 -10 18 0 19 2 7 10 -19 13 -30 13 -30 0z"/>
<path d="M1590 2660 c0 -5 7 -10 16 -10 8 0 12 5 9 10 -3 6 -10 10 -16 10 -5
0 -9 -4 -9 -10z"/>
<path d="M855 3490 c-3 -5 -1 -10 4 -10 6 0 11 5 11 10 0 6 -2 10 -4 10 -3 0
-8 -4 -11 -10z"/>
<path d="M1286 3125 c4 -8 10 -12 15 -9 11 6 2 24 -11 24 -5 0 -7 -7 -4 -15z"/>
</g>
</svg>
