<svg xmlns="http://www.w3.org/2000/svg" xmlns:v="https://svgstorm.com" viewBox="0 0 512 512" width="512" height="512" style="cursor: default;">
<g fill="None" fill-opacity="0.0" stroke="#f8f8f2" stroke-opacity="0.00" stroke-width="0.3"><path d=" M 0.00 512.00  L 512.00 512.00 L 512.00 0.00 L 0.00 0.00 L 0.00 512.00 M 380.00 223.00  C 379.42 231.66 368.04 235.06 361.00 238.00 C 386.81 252.10 413.70 267.57 442.01 275.99 C 457.14 275.08 472.81 282.12 476.78 298.22 C 486.77 317.46 461.64 325.65 446.00 323.00 C 430.53 318.37 415.83 313.27 401.00 309.00 C 387.91 301.77 371.73 299.43 362.30 287.70 C 350.37 279.19 337.65 271.99 325.00 265.00 C 306.01 324.49 288.69 385.06 278.22 447.22 C 272.15 458.63 278.68 473.72 269.75 482.75 C 261.90 486.15 238.74 497.37 242.00 481.00 C 226.10 476.64 233.64 453.25 229.67 440.33 C 228.75 393.71 217.54 349.63 209.02 303.98 C 204.30 290.40 200.93 276.53 196.00 263.00 C 183.55 272.15 171.00 281.29 159.75 291.75 C 150.73 303.93 131.33 308.78 127.00 324.00 C 122.00 324.95 118.97 330.86 113.00 329.00 C 113.48 341.69 96.03 342.75 86.93 341.07 C 73.45 337.84 75.66 325.07 76.00 315.00 C 80.93 295.61 104.59 290.67 118.70 276.70 C 133.74 264.44 149.31 252.32 164.00 240.00 C 125.19 227.84 94.43 194.52 74.92 160.08 C 65.38 155.92 64.53 142.63 58.08 134.92 C 47.09 114.46 45.03 91.04 39.02 68.98 C 34.57 55.07 55.64 45.85 55.00 64.00 C 65.54 62.37 63.51 74.88 69.00 80.00 C 82.62 83.57 82.18 104.15 89.92 115.08 C 101.85 139.64 111.70 164.66 133.25 183.75 C 144.35 191.49 155.37 200.43 168.00 205.00 C 165.79 191.65 153.57 183.06 153.00 169.00 C 150.25 156.02 140.47 145.24 138.00 133.00 C 123.43 125.43 119.70 97.15 137.22 91.22 C 154.09 91.69 166.28 106.15 179.08 115.92 C 205.42 134.96 231.71 152.17 258.00 171.00 C 271.80 162.17 284.98 152.61 298.75 143.75 C 313.20 136.62 326.42 120.76 343.00 122.00 C 346.78 107.18 371.40 106.14 378.92 119.08 C 382.80 125.20 383.48 136.15 373.98 136.98 C 371.19 142.90 376.68 152.40 371.08 159.08 C 364.30 171.33 354.09 183.21 352.00 198.00 C 372.40 187.56 392.61 174.78 403.97 154.97 C 410.36 145.70 408.36 128.64 421.03 125.02 C 434.07 124.13 434.92 103.45 451.00 107.00 C 457.36 98.81 454.42 86.27 464.77 81.77 C 469.52 73.14 471.38 63.91 479.70 57.70 C 485.80 46.90 503.81 52.82 497.00 66.00 C 489.85 104.03 463.83 135.45 443.23 168.23 C 426.76 189.28 407.34 215.46 380.00 223.00 Z"/>
</g>
<g fill="None" fill-opacity="0.0" stroke="#19dcfa" stroke-opacity="0.97" stroke-width="0.3"><path d=" M 380.00 223.00  C 407.34 215.46 426.76 189.28 443.23 168.23 C 463.83 135.45 489.85 104.03 497.00 66.00 C 503.81 52.82 485.80 46.90 479.70 57.70 C 471.38 63.91 469.52 73.14 464.77 81.77 C 454.42 86.27 457.36 98.81 451.00 107.00 C 434.92 103.45 434.07 124.13 421.03 125.02 C 408.36 128.64 410.36 145.70 403.97 154.97 C 392.61 174.78 372.40 187.56 352.00 198.00 C 354.09 183.21 364.30 171.33 371.08 159.08 C 376.68 152.40 371.19 142.90 373.98 136.98 C 383.48 136.15 382.80 125.20 378.92 119.08 C 371.40 106.14 346.78 107.18 343.00 122.00 C 326.42 120.76 313.20 136.62 298.75 143.75 C 284.98 152.61 271.80 162.17 258.00 171.00 C 231.71 152.17 205.42 134.96 179.08 115.92 C 166.28 106.15 154.09 91.69 137.22 91.22 C 119.70 97.15 123.43 125.43 138.00 133.00 C 140.47 145.24 150.25 156.02 153.00 169.00 C 153.57 183.06 165.79 191.65 168.00 205.00 C 155.37 200.43 144.35 191.49 133.25 183.75 C 111.70 164.66 101.85 139.64 89.92 115.08 C 82.18 104.15 82.62 83.57 69.00 80.00 C 63.51 74.88 65.54 62.37 55.00 64.00 C 55.64 45.85 34.57 55.07 39.02 68.98 C 45.03 91.04 47.09 114.46 58.08 134.92 C 64.53 142.63 65.38 155.92 74.92 160.08 C 94.43 194.52 125.19 227.84 164.00 240.00 C 149.31 252.32 133.74 264.44 118.70 276.70 C 104.59 290.67 80.93 295.61 76.00 315.00 C 75.66 325.07 73.45 337.84 86.93 341.07 C 96.03 342.75 113.48 341.69 113.00 329.00 C 118.97 330.86 122.00 324.95 127.00 324.00 C 131.33 308.78 150.73 303.93 159.75 291.75 C 171.00 281.29 183.55 272.15 196.00 263.00 C 200.93 276.53 204.30 290.40 209.02 303.98 C 217.54 349.63 228.75 393.71 229.67 440.33 C 233.64 453.25 226.10 476.64 242.00 481.00 C 238.74 497.37 261.90 486.15 269.75 482.75 C 278.68 473.72 272.15 458.63 278.22 447.22 C 288.69 385.06 306.01 324.49 325.00 265.00 C 337.65 271.99 350.37 279.19 362.30 287.70 C 371.73 299.43 387.91 301.77 401.00 309.00 C 415.83 313.27 430.53 318.37 446.00 323.00 C 461.64 325.65 486.77 317.46 476.78 298.22 C 472.81 282.12 457.14 275.08 442.01 275.99 C 413.70 267.57 386.81 252.10 361.00 238.00 C 368.04 235.06 379.42 231.66 380.00 223.00 M 486.00 92.00  C 474.45 100.91 468.33 121.17 458.70 134.70 C 440.54 164.51 419.91 189.88 393.75 211.75 C 377.30 219.14 365.20 232.69 347.00 238.00 C 379.45 254.17 412.62 275.58 448.00 284.00 C 454.59 281.06 456.71 288.61 464.00 288.00 C 468.36 294.99 475.32 304.00 468.70 311.70 C 462.82 318.54 449.48 320.27 441.75 314.25 C 432.17 312.11 419.76 312.68 414.00 304.00 C 401.70 306.66 391.22 296.57 379.93 293.07 C 369.84 288.50 362.77 279.22 352.25 273.75 C 341.72 268.78 332.62 260.27 322.00 256.00 C 299.19 323.98 280.17 394.35 269.20 465.25 C 273.34 476.81 261.37 479.56 255.00 483.00 C 245.84 476.87 233.86 473.13 238.00 459.00 C 231.45 411.83 232.43 367.30 217.01 321.99 C 216.58 298.25 205.58 277.33 200.00 255.00 C 192.17 256.64 185.95 262.70 179.75 267.75 C 172.42 270.70 167.84 282.83 161.00 279.00 C 165.09 284.00 155.81 286.02 152.77 289.77 C 144.77 298.19 134.85 303.48 126.75 311.75 C 120.43 312.59 120.79 323.22 114.77 322.21 C 108.71 323.98 104.92 327.84 102.70 333.70 C 98.03 334.75 89.72 337.37 87.87 333.08 C 80.45 333.50 79.79 323.02 87.00 326.00 C 85.75 320.81 80.75 318.07 83.00 312.00 C 88.54 310.69 87.72 308.63 88.00 304.00 C 100.45 302.78 108.24 289.62 119.08 284.08 C 137.74 269.10 157.80 254.24 176.00 238.00 C 140.00 228.24 109.02 202.45 89.23 170.77 C 83.72 158.20 73.89 154.15 69.08 141.92 C 53.73 118.51 49.69 90.26 45.00 63.00 C 50.19 62.95 52.26 75.49 57.00 70.00 C 59.56 75.57 60.81 82.38 66.00 84.00 C 67.18 92.39 69.29 101.66 75.00 108.00 C 76.14 102.73 71.77 95.91 71.00 90.00 C 79.04 101.82 83.89 118.35 91.00 132.00 C 85.41 130.10 93.13 143.43 97.22 143.78 C 112.40 180.41 146.38 207.87 185.00 217.00 C 184.10 212.39 178.65 209.03 181.00 204.00 C 176.70 200.11 178.11 205.15 175.00 206.00 C 172.80 198.92 168.83 192.48 168.00 185.00 C 159.52 183.89 160.88 169.07 157.69 162.31 C 154.76 154.77 146.19 143.50 150.00 138.00 C 145.24 131.74 140.52 128.85 135.75 123.25 C 131.11 116.66 133.14 108.38 133.26 101.26 C 145.88 90.24 160.23 110.82 171.25 117.75 C 195.11 136.10 220.62 151.35 244.70 169.30 C 251.04 172.29 257.61 182.93 264.25 174.25 C 283.06 161.67 301.48 148.23 321.08 137.08 C 327.57 133.97 333.57 126.17 341.03 127.98 C 350.33 129.17 349.61 114.42 360.01 116.01 C 368.13 115.65 377.21 122.45 375.00 131.00 C 369.48 129.75 367.97 136.32 365.00 139.00 C 374.10 151.26 360.27 161.21 356.25 171.25 C 349.76 182.92 345.53 195.52 341.00 208.00 C 357.79 204.72 371.22 192.55 386.23 185.23 C 394.51 181.56 394.62 171.19 402.75 167.75 C 409.65 161.85 410.25 153.08 414.92 145.92 C 413.36 139.11 423.91 123.04 426.00 135.00 C 435.60 128.95 438.25 108.10 454.00 114.00 C 457.15 106.20 466.16 96.40 462.00 90.00 C 469.61 90.06 477.54 78.10 474.00 72.00 C 480.64 68.77 483.13 62.38 488.00 58.00 C 497.45 66.96 482.72 82.50 486.00 92.00 Z"/>
</g>
<g fill="None" fill-opacity="0.0" stroke="#f8f8f2" stroke-opacity="1.00" stroke-width="0.3"><path d=" M 486.00 92.00  C 482.72 82.50 497.45 66.96 488.00 58.00 C 483.13 62.38 480.64 68.77 474.00 72.00 C 477.54 78.10 469.61 90.06 462.00 90.00 C 466.16 96.40 457.15 106.20 454.00 114.00 C 438.25 108.10 435.60 128.95 426.00 135.00 C 423.91 123.04 413.36 139.11 414.92 145.92 C 410.25 153.08 409.65 161.85 402.75 167.75 C 394.62 171.19 394.51 181.56 386.23 185.23 C 371.22 192.55 357.79 204.72 341.00 208.00 C 345.53 195.52 349.76 182.92 356.25 171.25 C 360.27 161.21 374.10 151.26 365.00 139.00 C 367.97 136.32 369.48 129.75 375.00 131.00 C 377.21 122.45 368.13 115.65 360.01 116.01 C 349.61 114.42 350.33 129.17 341.03 127.98 C 333.57 126.17 327.57 133.97 321.08 137.08 C 301.48 148.23 283.06 161.67 264.25 174.25 C 257.61 182.93 251.04 172.29 244.70 169.30 C 220.62 151.35 195.11 136.10 171.25 117.75 C 160.23 110.82 145.88 90.24 133.26 101.26 C 133.14 108.38 131.11 116.66 135.75 123.25 C 140.52 128.85 145.24 131.74 150.00 138.00 C 146.19 143.50 154.76 154.77 157.69 162.31 C 160.88 169.07 159.52 183.89 168.00 185.00 C 168.83 192.48 172.80 198.92 175.00 206.00 C 178.11 205.15 176.70 200.11 181.00 204.00 C 178.65 209.03 184.10 212.39 185.00 217.00 C 146.38 207.87 112.40 180.41 97.22 143.78 C 93.13 143.43 85.41 130.10 91.00 132.00 C 83.89 118.35 79.04 101.82 71.00 90.00 C 71.77 95.91 76.14 102.73 75.00 108.00 C 69.29 101.66 67.18 92.39 66.00 84.00 C 60.81 82.38 59.56 75.57 57.00 70.00 C 52.26 75.49 50.19 62.95 45.00 63.00 C 49.69 90.26 53.73 118.51 69.08 141.92 C 73.89 154.15 83.72 158.20 89.23 170.77 C 109.02 202.45 140.00 228.24 176.00 238.00 C 157.80 254.24 137.74 269.10 119.08 284.08 C 108.24 289.62 100.45 302.78 88.00 304.00 C 87.72 308.63 88.54 310.69 83.00 312.00 C 80.75 318.07 85.75 320.81 87.00 326.00 C 79.79 323.02 80.45 333.50 87.87 333.08 C 89.72 337.37 98.03 334.75 102.70 333.70 C 104.92 327.84 108.71 323.98 114.77 322.21 C 120.79 323.22 120.43 312.59 126.75 311.75 C 134.85 303.48 144.77 298.19 152.77 289.77 C 155.81 286.02 165.09 284.00 161.00 279.00 C 167.84 282.83 172.42 270.70 179.75 267.75 C 185.95 262.70 192.17 256.64 200.00 255.00 C 205.58 277.33 216.58 298.25 217.01 321.99 C 232.43 367.30 231.45 411.83 238.00 459.00 C 233.86 473.13 245.84 476.87 255.00 483.00 C 261.37 479.56 273.34 476.81 269.20 465.25 C 280.17 394.35 299.19 323.98 322.00 256.00 C 332.62 260.27 341.72 268.78 352.25 273.75 C 362.77 279.22 369.84 288.50 379.93 293.07 C 391.22 296.57 401.70 306.66 414.00 304.00 C 419.76 312.68 432.17 312.11 441.75 314.25 C 449.48 320.27 462.82 318.54 468.70 311.70 C 475.32 304.00 468.36 294.99 464.00 288.00 C 456.71 288.61 454.59 281.06 448.00 284.00 C 412.62 275.58 379.45 254.17 347.00 238.00 C 365.20 232.69 377.30 219.14 393.75 211.75 C 419.91 189.88 440.54 164.51 458.70 134.70 C 468.33 121.17 474.45 100.91 486.00 92.00 M 84.00 123.00  C 81.41 123.18 81.27 119.64 80.00 118.00 C 82.10 118.07 83.70 121.01 84.00 123.00 M 339.00 157.00  C 337.58 168.60 333.11 179.82 327.22 189.22 C 325.02 199.91 323.86 213.87 312.00 218.00 C 303.33 208.95 289.24 204.86 283.00 194.00 C 302.00 182.21 319.63 167.80 339.00 157.00 M 229.00 200.00  C 222.42 203.11 217.56 208.91 211.00 212.00 C 206.59 199.58 202.56 187.06 197.00 175.00 C 202.84 174.12 206.10 184.86 211.74 180.74 C 218.01 176.16 218.38 184.13 222.75 187.25 C 230.26 190.39 226.87 194.89 229.00 200.00 M 258.00 403.00  C 250.27 385.92 255.42 363.50 247.08 345.92 C 243.15 327.53 240.80 309.58 234.01 291.99 C 234.65 273.58 223.12 256.57 221.00 238.00 C 234.87 232.08 248.27 209.81 263.70 219.30 C 279.53 223.27 292.27 235.96 305.92 245.08 C 302.51 263.45 293.57 279.65 287.07 297.07 C 284.38 314.56 278.30 332.59 273.25 349.25 C 269.49 367.17 262.51 384.52 258.00 403.00 M 336.00 225.00  C 342.35 234.15 326.82 230.27 336.00 225.00 M 155.00 262.00  C 153.68 264.08 151.81 266.59 149.00 266.00 C 150.14 263.69 152.53 262.23 155.00 262.00 Z"/>
</g>
<g fill="None" fill-opacity="0.0" stroke="#19dcfa" stroke-opacity="1.00" stroke-width="0.3"><path d=" M 84.00 123.00  C 83.70 121.01 82.10 118.07 80.00 118.00 C 81.27 119.64 81.41 123.18 84.00 123.00 Z"/>
</g>
<g fill="None" fill-opacity="0.0" stroke="#19dcfa" stroke-opacity="0.98" stroke-width="0.3"><path d=" M 339.00 157.00  C 319.63 167.80 302.00 182.21 283.00 194.00 C 289.24 204.86 303.33 208.95 312.00 218.00 C 323.86 213.87 325.02 199.91 327.22 189.22 C 333.11 179.82 337.58 168.60 339.00 157.00 M 330.00 169.00  C 322.31 181.64 320.86 196.55 314.00 210.00 C 306.11 206.61 299.04 201.12 292.00 196.00 C 303.71 185.72 318.32 179.61 330.00 169.00 Z"/>
</g>
<g fill="None" fill-opacity="0.0" stroke="#f8f8f2" stroke-opacity="0.00" stroke-width="0.3"><path d=" M 330.00 169.00  C 318.32 179.61 303.71 185.72 292.00 196.00 C 299.04 201.12 306.11 206.61 314.00 210.00 C 320.86 196.55 322.31 181.64 330.00 169.00 Z"/>
</g>
<g fill="None" fill-opacity="0.0" stroke="#19dcfa" stroke-opacity="0.97" stroke-width="0.3"><path d=" M 229.00 200.00  C 226.87 194.89 230.26 190.39 222.75 187.25 C 218.38 184.13 218.01 176.16 211.74 180.74 C 206.10 184.86 202.84 174.12 197.00 175.00 C 202.56 187.06 206.59 199.58 211.00 212.00 C 217.56 208.91 222.42 203.11 229.00 200.00 M 221.00 192.00  C 222.76 197.74 217.58 200.01 214.00 203.00 C 213.09 197.41 209.94 192.57 209.00 187.00 C 214.17 187.09 217.04 189.63 221.00 192.00 Z"/>
</g>
<g fill="None" fill-opacity="0.0" stroke="#f8f8f2" stroke-opacity="0.00" stroke-width="0.3"><path d=" M 221.00 192.00  C 217.04 189.63 214.17 187.09 209.00 187.00 C 209.94 192.57 213.09 197.41 214.00 203.00 C 217.58 200.01 222.76 197.74 221.00 192.00 Z"/>
</g>
<g fill="None" fill-opacity="0.0" stroke="#19dcfa" stroke-opacity="0.98" stroke-width="0.3"><path d=" M 258.00 403.00  C 262.51 384.52 269.49 367.17 273.25 349.25 C 278.30 332.59 284.38 314.56 287.07 297.07 C 293.57 279.65 302.51 263.45 305.92 245.08 C 292.27 235.96 279.53 223.27 263.70 219.30 C 248.27 209.81 234.87 232.08 221.00 238.00 C 223.12 256.57 234.65 273.58 234.01 291.99 C 240.80 309.58 243.15 327.53 247.08 345.92 C 255.42 363.50 250.27 385.92 258.00 403.00 M 273.00 227.00  C 278.84 235.52 290.84 239.87 299.00 247.00 C 295.85 269.64 280.27 286.56 278.69 309.69 C 272.18 331.32 266.92 353.52 260.00 375.00 C 254.12 343.37 245.18 311.15 239.02 279.98 C 235.89 269.74 233.50 259.31 229.69 249.31 C 223.54 239.10 238.93 233.22 244.67 228.67 C 253.31 217.89 262.15 226.85 273.00 227.00 Z"/>
</g>
<g fill="None" fill-opacity="0.0" stroke="#f8f8f2" stroke-opacity="0.00" stroke-width="0.3"><path d=" M 273.00 227.00  C 262.15 226.85 253.31 217.89 244.67 228.67 C 238.93 233.22 223.54 239.10 229.69 249.31 C 233.50 259.31 235.89 269.74 239.02 279.98 C 245.18 311.15 254.12 343.37 260.00 375.00 C 266.92 353.52 272.18 331.32 278.69 309.69 C 280.27 286.56 295.85 269.64 299.00 247.00 C 290.84 239.87 278.84 235.52 273.00 227.00 Z"/>
</g>
<g fill="None" fill-opacity="0.0" stroke="#19dcfa" stroke-opacity="1.00" stroke-width="0.3"><path d=" M 336.00 225.00  C 326.82 230.27 342.35 234.15 336.00 225.00 Z"/>
</g>
<g fill="None" fill-opacity="0.0" stroke="#19dcfa" stroke-opacity="1.00" stroke-width="0.3"><path d=" M 155.00 262.00  C 152.53 262.23 150.14 263.69 149.00 266.00 C 151.81 266.59 153.68 264.08 155.00 262.00 Z"/>
</g>
<g fill="#f8f8f2" fill-opacity="0.00" stroke="None">
<path d=" M 0.00 512.00  L 512.00 512.00 L 512.00 0.00 L 0.00 0.00 L 0.00 512.00 M 380.00 223.00  C 379.42 231.66 368.04 235.06 361.00 238.00 C 386.81 252.10 413.70 267.57 442.01 275.99 C 457.14 275.08 472.81 282.12 476.78 298.22 C 486.77 317.46 461.64 325.65 446.00 323.00 C 430.53 318.37 415.83 313.27 401.00 309.00 C 387.91 301.77 371.73 299.43 362.30 287.70 C 350.37 279.19 337.65 271.99 325.00 265.00 C 306.01 324.49 288.69 385.06 278.22 447.22 C 272.15 458.63 278.68 473.72 269.75 482.75 C 261.90 486.15 238.74 497.37 242.00 481.00 C 226.10 476.64 233.64 453.25 229.67 440.33 C 228.75 393.71 217.54 349.63 209.02 303.98 C 204.30 290.40 200.93 276.53 196.00 263.00 C 183.55 272.15 171.00 281.29 159.75 291.75 C 150.73 303.93 131.33 308.78 127.00 324.00 C 122.00 324.95 118.97 330.86 113.00 329.00 C 113.48 341.69 96.03 342.75 86.93 341.07 C 73.45 337.84 75.66 325.07 76.00 315.00 C 80.93 295.61 104.59 290.67 118.70 276.70 C 133.74 264.44 149.31 252.32 164.00 240.00 C 125.19 227.84 94.43 194.52 74.92 160.08 C 65.38 155.92 64.53 142.63 58.08 134.92 C 47.09 114.46 45.03 91.04 39.02 68.98 C 34.57 55.07 55.64 45.85 55.00 64.00 C 65.54 62.37 63.51 74.88 69.00 80.00 C 82.62 83.57 82.18 104.15 89.92 115.08 C 101.85 139.64 111.70 164.66 133.25 183.75 C 144.35 191.49 155.37 200.43 168.00 205.00 C 165.79 191.65 153.57 183.06 153.00 169.00 C 150.25 156.02 140.47 145.24 138.00 133.00 C 123.43 125.43 119.70 97.15 137.22 91.22 C 154.09 91.69 166.28 106.15 179.08 115.92 C 205.42 134.96 231.71 152.17 258.00 171.00 C 271.80 162.17 284.98 152.61 298.75 143.75 C 313.20 136.62 326.42 120.76 343.00 122.00 C 346.78 107.18 371.40 106.14 378.92 119.08 C 382.80 125.20 383.48 136.15 373.98 136.98 C 371.19 142.90 376.68 152.40 371.08 159.08 C 364.30 171.33 354.09 183.21 352.00 198.00 C 372.40 187.56 392.61 174.78 403.97 154.97 C 410.36 145.70 408.36 128.64 421.03 125.02 C 434.07 124.13 434.92 103.45 451.00 107.00 C 457.36 98.81 454.42 86.27 464.77 81.77 C 469.52 73.14 471.38 63.91 479.70 57.70 C 485.80 46.90 503.81 52.82 497.00 66.00 C 489.85 104.03 463.83 135.45 443.23 168.23 C 426.76 189.28 407.34 215.46 380.00 223.00 Z"/>
</g>
<g fill="#19dcfa" fill-opacity="0.97" stroke="None">
<path d=" M 380.00 223.00  C 407.34 215.46 426.76 189.28 443.23 168.23 C 463.83 135.45 489.85 104.03 497.00 66.00 C 503.81 52.82 485.80 46.90 479.70 57.70 C 471.38 63.91 469.52 73.14 464.77 81.77 C 454.42 86.27 457.36 98.81 451.00 107.00 C 434.92 103.45 434.07 124.13 421.03 125.02 C 408.36 128.64 410.36 145.70 403.97 154.97 C 392.61 174.78 372.40 187.56 352.00 198.00 C 354.09 183.21 364.30 171.33 371.08 159.08 C 376.68 152.40 371.19 142.90 373.98 136.98 C 383.48 136.15 382.80 125.20 378.92 119.08 C 371.40 106.14 346.78 107.18 343.00 122.00 C 326.42 120.76 313.20 136.62 298.75 143.75 C 284.98 152.61 271.80 162.17 258.00 171.00 C 231.71 152.17 205.42 134.96 179.08 115.92 C 166.28 106.15 154.09 91.69 137.22 91.22 C 119.70 97.15 123.43 125.43 138.00 133.00 C 140.47 145.24 150.25 156.02 153.00 169.00 C 153.57 183.06 165.79 191.65 168.00 205.00 C 155.37 200.43 144.35 191.49 133.25 183.75 C 111.70 164.66 101.85 139.64 89.92 115.08 C 82.18 104.15 82.62 83.57 69.00 80.00 C 63.51 74.88 65.54 62.37 55.00 64.00 C 55.64 45.85 34.57 55.07 39.02 68.98 C 45.03 91.04 47.09 114.46 58.08 134.92 C 64.53 142.63 65.38 155.92 74.92 160.08 C 94.43 194.52 125.19 227.84 164.00 240.00 C 149.31 252.32 133.74 264.44 118.70 276.70 C 104.59 290.67 80.93 295.61 76.00 315.00 C 75.66 325.07 73.45 337.84 86.93 341.07 C 96.03 342.75 113.48 341.69 113.00 329.00 C 118.97 330.86 122.00 324.95 127.00 324.00 C 131.33 308.78 150.73 303.93 159.75 291.75 C 171.00 281.29 183.55 272.15 196.00 263.00 C 200.93 276.53 204.30 290.40 209.02 303.98 C 217.54 349.63 228.75 393.71 229.67 440.33 C 233.64 453.25 226.10 476.64 242.00 481.00 C 238.74 497.37 261.90 486.15 269.75 482.75 C 278.68 473.72 272.15 458.63 278.22 447.22 C 288.69 385.06 306.01 324.49 325.00 265.00 C 337.65 271.99 350.37 279.19 362.30 287.70 C 371.73 299.43 387.91 301.77 401.00 309.00 C 415.83 313.27 430.53 318.37 446.00 323.00 C 461.64 325.65 486.77 317.46 476.78 298.22 C 472.81 282.12 457.14 275.08 442.01 275.99 C 413.70 267.57 386.81 252.10 361.00 238.00 C 368.04 235.06 379.42 231.66 380.00 223.00 M 486.00 92.00  C 474.45 100.91 468.33 121.17 458.70 134.70 C 440.54 164.51 419.91 189.88 393.75 211.75 C 377.30 219.14 365.20 232.69 347.00 238.00 C 379.45 254.17 412.62 275.58 448.00 284.00 C 454.59 281.06 456.71 288.61 464.00 288.00 C 468.36 294.99 475.32 304.00 468.70 311.70 C 462.82 318.54 449.48 320.27 441.75 314.25 C 432.17 312.11 419.76 312.68 414.00 304.00 C 401.70 306.66 391.22 296.57 379.93 293.07 C 369.84 288.50 362.77 279.22 352.25 273.75 C 341.72 268.78 332.62 260.27 322.00 256.00 C 299.19 323.98 280.17 394.35 269.20 465.25 C 273.34 476.81 261.37 479.56 255.00 483.00 C 245.84 476.87 233.86 473.13 238.00 459.00 C 231.45 411.83 232.43 367.30 217.01 321.99 C 216.58 298.25 205.58 277.33 200.00 255.00 C 192.17 256.64 185.95 262.70 179.75 267.75 C 172.42 270.70 167.84 282.83 161.00 279.00 C 165.09 284.00 155.81 286.02 152.77 289.77 C 144.77 298.19 134.85 303.48 126.75 311.75 C 120.43 312.59 120.79 323.22 114.77 322.21 C 108.71 323.98 104.92 327.84 102.70 333.70 C 98.03 334.75 89.72 337.37 87.87 333.08 C 80.45 333.50 79.79 323.02 87.00 326.00 C 85.75 320.81 80.75 318.07 83.00 312.00 C 88.54 310.69 87.72 308.63 88.00 304.00 C 100.45 302.78 108.24 289.62 119.08 284.08 C 137.74 269.10 157.80 254.24 176.00 238.00 C 140.00 228.24 109.02 202.45 89.23 170.77 C 83.72 158.20 73.89 154.15 69.08 141.92 C 53.73 118.51 49.69 90.26 45.00 63.00 C 50.19 62.95 52.26 75.49 57.00 70.00 C 59.56 75.57 60.81 82.38 66.00 84.00 C 67.18 92.39 69.29 101.66 75.00 108.00 C 76.14 102.73 71.77 95.91 71.00 90.00 C 79.04 101.82 83.89 118.35 91.00 132.00 C 85.41 130.10 93.13 143.43 97.22 143.78 C 112.40 180.41 146.38 207.87 185.00 217.00 C 184.10 212.39 178.65 209.03 181.00 204.00 C 176.70 200.11 178.11 205.15 175.00 206.00 C 172.80 198.92 168.83 192.48 168.00 185.00 C 159.52 183.89 160.88 169.07 157.69 162.31 C 154.76 154.77 146.19 143.50 150.00 138.00 C 145.24 131.74 140.52 128.85 135.75 123.25 C 131.11 116.66 133.14 108.38 133.26 101.26 C 145.88 90.24 160.23 110.82 171.25 117.75 C 195.11 136.10 220.62 151.35 244.70 169.30 C 251.04 172.29 257.61 182.93 264.25 174.25 C 283.06 161.67 301.48 148.23 321.08 137.08 C 327.57 133.97 333.57 126.17 341.03 127.98 C 350.33 129.17 349.61 114.42 360.01 116.01 C 368.13 115.65 377.21 122.45 375.00 131.00 C 369.48 129.75 367.97 136.32 365.00 139.00 C 374.10 151.26 360.27 161.21 356.25 171.25 C 349.76 182.92 345.53 195.52 341.00 208.00 C 357.79 204.72 371.22 192.55 386.23 185.23 C 394.51 181.56 394.62 171.19 402.75 167.75 C 409.65 161.85 410.25 153.08 414.92 145.92 C 413.36 139.11 423.91 123.04 426.00 135.00 C 435.60 128.95 438.25 108.10 454.00 114.00 C 457.15 106.20 466.16 96.40 462.00 90.00 C 469.61 90.06 477.54 78.10 474.00 72.00 C 480.64 68.77 483.13 62.38 488.00 58.00 C 497.45 66.96 482.72 82.50 486.00 92.00 Z"/>
</g>
<g fill="#f8f8f2" fill-opacity="1.00" stroke="None">
<path d=" M 486.00 92.00  C 482.72 82.50 497.45 66.96 488.00 58.00 C 483.13 62.38 480.64 68.77 474.00 72.00 C 477.54 78.10 469.61 90.06 462.00 90.00 C 466.16 96.40 457.15 106.20 454.00 114.00 C 438.25 108.10 435.60 128.95 426.00 135.00 C 423.91 123.04 413.36 139.11 414.92 145.92 C 410.25 153.08 409.65 161.85 402.75 167.75 C 394.62 171.19 394.51 181.56 386.23 185.23 C 371.22 192.55 357.79 204.72 341.00 208.00 C 345.53 195.52 349.76 182.92 356.25 171.25 C 360.27 161.21 374.10 151.26 365.00 139.00 C 367.97 136.32 369.48 129.75 375.00 131.00 C 377.21 122.45 368.13 115.65 360.01 116.01 C 349.61 114.42 350.33 129.17 341.03 127.98 C 333.57 126.17 327.57 133.97 321.08 137.08 C 301.48 148.23 283.06 161.67 264.25 174.25 C 257.61 182.93 251.04 172.29 244.70 169.30 C 220.62 151.35 195.11 136.10 171.25 117.75 C 160.23 110.82 145.88 90.24 133.26 101.26 C 133.14 108.38 131.11 116.66 135.75 123.25 C 140.52 128.85 145.24 131.74 150.00 138.00 C 146.19 143.50 154.76 154.77 157.69 162.31 C 160.88 169.07 159.52 183.89 168.00 185.00 C 168.83 192.48 172.80 198.92 175.00 206.00 C 178.11 205.15 176.70 200.11 181.00 204.00 C 178.65 209.03 184.10 212.39 185.00 217.00 C 146.38 207.87 112.40 180.41 97.22 143.78 C 93.13 143.43 85.41 130.10 91.00 132.00 C 83.89 118.35 79.04 101.82 71.00 90.00 C 71.77 95.91 76.14 102.73 75.00 108.00 C 69.29 101.66 67.18 92.39 66.00 84.00 C 60.81 82.38 59.56 75.57 57.00 70.00 C 52.26 75.49 50.19 62.95 45.00 63.00 C 49.69 90.26 53.73 118.51 69.08 141.92 C 73.89 154.15 83.72 158.20 89.23 170.77 C 109.02 202.45 140.00 228.24 176.00 238.00 C 157.80 254.24 137.74 269.10 119.08 284.08 C 108.24 289.62 100.45 302.78 88.00 304.00 C 87.72 308.63 88.54 310.69 83.00 312.00 C 80.75 318.07 85.75 320.81 87.00 326.00 C 79.79 323.02 80.45 333.50 87.87 333.08 C 89.72 337.37 98.03 334.75 102.70 333.70 C 104.92 327.84 108.71 323.98 114.77 322.21 C 120.79 323.22 120.43 312.59 126.75 311.75 C 134.85 303.48 144.77 298.19 152.77 289.77 C 155.81 286.02 165.09 284.00 161.00 279.00 C 167.84 282.83 172.42 270.70 179.75 267.75 C 185.95 262.70 192.17 256.64 200.00 255.00 C 205.58 277.33 216.58 298.25 217.01 321.99 C 232.43 367.30 231.45 411.83 238.00 459.00 C 233.86 473.13 245.84 476.87 255.00 483.00 C 261.37 479.56 273.34 476.81 269.20 465.25 C 280.17 394.35 299.19 323.98 322.00 256.00 C 332.62 260.27 341.72 268.78 352.25 273.75 C 362.77 279.22 369.84 288.50 379.93 293.07 C 391.22 296.57 401.70 306.66 414.00 304.00 C 419.76 312.68 432.17 312.11 441.75 314.25 C 449.48 320.27 462.82 318.54 468.70 311.70 C 475.32 304.00 468.36 294.99 464.00 288.00 C 456.71 288.61 454.59 281.06 448.00 284.00 C 412.62 275.58 379.45 254.17 347.00 238.00 C 365.20 232.69 377.30 219.14 393.75 211.75 C 419.91 189.88 440.54 164.51 458.70 134.70 C 468.33 121.17 474.45 100.91 486.00 92.00 M 84.00 123.00  C 81.41 123.18 81.27 119.64 80.00 118.00 C 82.10 118.07 83.70 121.01 84.00 123.00 M 339.00 157.00  C 337.58 168.60 333.11 179.82 327.22 189.22 C 325.02 199.91 323.86 213.87 312.00 218.00 C 303.33 208.95 289.24 204.86 283.00 194.00 C 302.00 182.21 319.63 167.80 339.00 157.00 M 229.00 200.00  C 222.42 203.11 217.56 208.91 211.00 212.00 C 206.59 199.58 202.56 187.06 197.00 175.00 C 202.84 174.12 206.10 184.86 211.74 180.74 C 218.01 176.16 218.38 184.13 222.75 187.25 C 230.26 190.39 226.87 194.89 229.00 200.00 M 258.00 403.00  C 250.27 385.92 255.42 363.50 247.08 345.92 C 243.15 327.53 240.80 309.58 234.01 291.99 C 234.65 273.58 223.12 256.57 221.00 238.00 C 234.87 232.08 248.27 209.81 263.70 219.30 C 279.53 223.27 292.27 235.96 305.92 245.08 C 302.51 263.45 293.57 279.65 287.07 297.07 C 284.38 314.56 278.30 332.59 273.25 349.25 C 269.49 367.17 262.51 384.52 258.00 403.00 M 336.00 225.00  C 342.35 234.15 326.82 230.27 336.00 225.00 M 155.00 262.00  C 153.68 264.08 151.81 266.59 149.00 266.00 C 150.14 263.69 152.53 262.23 155.00 262.00 Z"/>
</g>
<g fill="#19dcfa" fill-opacity="1.00" stroke="None">
<path d=" M 84.00 123.00  C 83.70 121.01 82.10 118.07 80.00 118.00 C 81.27 119.64 81.41 123.18 84.00 123.00 Z"/>
</g>
<g fill="#19dcfa" fill-opacity="0.98" stroke="None">
<path d=" M 339.00 157.00  C 319.63 167.80 302.00 182.21 283.00 194.00 C 289.24 204.86 303.33 208.95 312.00 218.00 C 323.86 213.87 325.02 199.91 327.22 189.22 C 333.11 179.82 337.58 168.60 339.00 157.00 M 330.00 169.00  C 322.31 181.64 320.86 196.55 314.00 210.00 C 306.11 206.61 299.04 201.12 292.00 196.00 C 303.71 185.72 318.32 179.61 330.00 169.00 Z"/>
</g>
<g fill="#f8f8f2" fill-opacity="0.00" stroke="None">
<path d=" M 330.00 169.00  C 318.32 179.61 303.71 185.72 292.00 196.00 C 299.04 201.12 306.11 206.61 314.00 210.00 C 320.86 196.55 322.31 181.64 330.00 169.00 Z"/>
</g>
<g fill="#19dcfa" fill-opacity="0.97" stroke="None">
<path d=" M 229.00 200.00  C 226.87 194.89 230.26 190.39 222.75 187.25 C 218.38 184.13 218.01 176.16 211.74 180.74 C 206.10 184.86 202.84 174.12 197.00 175.00 C 202.56 187.06 206.59 199.58 211.00 212.00 C 217.56 208.91 222.42 203.11 229.00 200.00 M 221.00 192.00  C 222.76 197.74 217.58 200.01 214.00 203.00 C 213.09 197.41 209.94 192.57 209.00 187.00 C 214.17 187.09 217.04 189.63 221.00 192.00 Z"/>
</g>
<g fill="#f8f8f2" fill-opacity="0.00" stroke="None">
<path d=" M 221.00 192.00  C 217.04 189.63 214.17 187.09 209.00 187.00 C 209.94 192.57 213.09 197.41 214.00 203.00 C 217.58 200.01 222.76 197.74 221.00 192.00 Z"/>
</g>
<g fill="#19dcfa" fill-opacity="0.98" stroke="None">
<path d=" M 258.00 403.00  C 262.51 384.52 269.49 367.17 273.25 349.25 C 278.30 332.59 284.38 314.56 287.07 297.07 C 293.57 279.65 302.51 263.45 305.92 245.08 C 292.27 235.96 279.53 223.27 263.70 219.30 C 248.27 209.81 234.87 232.08 221.00 238.00 C 223.12 256.57 234.65 273.58 234.01 291.99 C 240.80 309.58 243.15 327.53 247.08 345.92 C 255.42 363.50 250.27 385.92 258.00 403.00 M 273.00 227.00  C 278.84 235.52 290.84 239.87 299.00 247.00 C 295.85 269.64 280.27 286.56 278.69 309.69 C 272.18 331.32 266.92 353.52 260.00 375.00 C 254.12 343.37 245.18 311.15 239.02 279.98 C 235.89 269.74 233.50 259.31 229.69 249.31 C 223.54 239.10 238.93 233.22 244.67 228.67 C 253.31 217.89 262.15 226.85 273.00 227.00 Z"/>
</g>
<g fill="#f8f8f2" fill-opacity="0.00" stroke="None">
<path d=" M 273.00 227.00  C 262.15 226.85 253.31 217.89 244.67 228.67 C 238.93 233.22 223.54 239.10 229.69 249.31 C 233.50 259.31 235.89 269.74 239.02 279.98 C 245.18 311.15 254.12 343.37 260.00 375.00 C 266.92 353.52 272.18 331.32 278.69 309.69 C 280.27 286.56 295.85 269.64 299.00 247.00 C 290.84 239.87 278.84 235.52 273.00 227.00 Z"/>
</g>
<g fill="#19dcfa" fill-opacity="1.00" stroke="None">
<path d=" M 336.00 225.00  C 326.82 230.27 342.35 234.15 336.00 225.00 Z"/>
</g>
<g fill="#19dcfa" fill-opacity="1.00" stroke="None">
<path d=" M 155.00 262.00  C 152.53 262.23 150.14 263.69 149.00 266.00 C 151.81 266.59 153.68 264.08 155.00 262.00 Z"/>
</g>
</svg>
