<?xml version="1.0" encoding="UTF-8" standalone="no"?>
<svg id="visual" viewBox="0 0 432 432" width="432" height="432" version="1.1" xmlns="http://www.w3.org/2000/svg" xmlns:svg="http://www.w3.org/2000/svg" style="cursor: default;">
  <defs id="defs9"/>
  <defs id="defs16"/>
  <defs id="defs23"/>
  <defs id="defs30"/>
  <defs id="defs37"/>
  <defs id="defs44"/>
  <defs id="defs51"/>
  <defs id="defs58"/>
  <defs id="defs65"/>
  <defs id="defs72"/>
  <defs id="defs79"/>
  <defs id="defs86"/>
  <defs id="defs93"/>
  <defs id="defs100"/>
  <defs id="defs107"/>
  <defs id="defs114"/>
  <g transform="matrix(0,-1,-1,0,432,0)" id="g132">
    <path d="m 0,432 c -13.2,-65.6 -26.4,-131.2 -45.8,-142.6 -19.5,-11.4 -45.3,31.5 -55.6,22.5 -10.3,-8.9 -5.1,-69.8 -5.7,-101.6 -0.7,-31.9 -7,-34.7 -21.6,-33.1 -14.6,1.6 -37.49473,7.64334 -58.7,10.2 -21.09482,2.54335 -39.75918,7.87002 -79.6,6.6 -38.01939,-1.21196 -60.4415,-9.79939 -75.87914,-29.20122 C -354.80346,149.81245 -355.64119,130.37892 -348.1,113.1 -327.95207,66.935609 -246.5,58.3 -256.8,40.7 -267.1,23 -349.5,11.5 -432,0 H 0 Z" fill="#302b1d" id="path116"/>
    <path d="m 0,378 c -11.5,-57.4 -23.1,-114.8 -40.1,-124.8 -17,-9.9 -39.6,27.6 -48.6,19.8 -9,-7.9 -4.5,-61.1 -5,-89 -0.6,-27.9 -6.1,-30.4 -18.9,-29 -12.8,1.4 -32.8,6.7 -51.4,9 -18.5,2.2 -35.23335,5.21666 -69.6,5.7 -34.9639,0.49174 -54.34747,-9.69191 -68.46849,-25.97094 C -313.96551,130.01392 -314.22593,117.0403 -300.31216,99 -270.13947,59.87871 -215.7,51 -224.7,35.6 -233.7,20.2 -305.9,10.1 -378,0 H 0 Z" fill="#4c3728" id="path118"/>
    <path d="m 0,324 c -9.9,-49.2 -19.8,-98.4 -34.4,-107 -14.6,-8.5 -33.9,23.7 -41.6,17 -7.7,-6.8 -3.9,-52.4 -4.4,-76.3 -0.4,-23.9 -5.2,-26 -16.1,-24.8 -11,1.2 -28.20526,5.6568 -44,7.6 -15.90537,1.95681 -30.49283,1.25549 -59.7,5 -29.29294,3.7555 -47.66355,-1.46488 -61.05784,-14.265 -11.73257,-11.21211 -13.80074,-30.10066 4.87446,-48.150143 C -229.22765,56.838978 -184.9,43.7 -192.6,30.5 -200.3,17.3 -262.2,8.6 -324,0 H 0 Z" fill="#68433d" id="path120"/>
    <path d="m 0,270 c -8.2,-41 -16.5,-82 -28.6,-89.1 -12.2,-7.1 -28.3,19.7 -34.7,14.1 -6.5,-5.6 -3.3,-43.7 -3.7,-63.6 -0.3,-19.9 -4.3,-21.7 -13.5,-20.7 -9.1,1 -23.4,4.8 -36.6,6.4 -13.2,1.6 -25.4008,0.99374 -49.8,4.1 -24.3008,3.09374 -45.16917,1.36934 -56.97742,-8.46201 C -234.81109,103.63479 -239.12504,89.881746 -217.6,70.7 -194.0341,49.699564 -154.1,36.4 -160.5,25.4 -166.9,14.4 -218.5,7.2 -270,0 H 0 Z" fill="#80505f" id="path122"/>
    <path d="m 0,216 c -6.6,-32.8 -13.2,-65.6 -22.9,-71.3 -9.8,-5.7 -22.6,15.8 -27.8,11.3 -5.1,-4.5 -2.6,-34.9 -2.9,-50.9 -0.3,-15.9 -3.5,-17.3 -10.8,-16.5 -7.3,0.8 -18.7,3.8 -29.3,5.1 -10.6,1.3 -20.3,0.8 -39.8,3.3 -19.5,2.5 -34.5885,-1.475468 -44.85013,-8.333238 C -188.58883,81.824315 -193.85679,72.155318 -174,56.6 -154.15664,41.055198 -123.3,29.2 -128.4,20.3 -133.5,11.5 -174.8,5.8 -216,0 H 0 Z" fill="#8f618b" id="path124"/>
    <path d="m 0,162 c -4.9,-24.6 -9.9,-49.2 -17.2,-53.5 -7.3,-4.2 -16.9,11.8 -20.8,8.5 -3.9,-3.4 -1.9,-26.2 -2.2,-38.1 -0.2,-12 -2.6,-13.1 -8.1,-12.5 -5.5,0.6 -14,2.9 -22,3.9 -7.9,0.9 -15.206153,0.55078 -29.8,2.4 -14.60632,1.850801 -27.55657,-3.061883 -35.19554,-8.20446 C -142.957,59.337825 -140.25459,54 -130.5,42.4 -118.34683,27.947647 -92.4,21.9 -96.3,15.3 -100.2,8.6 -131.1,4.3 -162,0 H 0 Z" fill="#9079b9" id="path126"/>
    <path d="M 0,108 C -3.3,91.6 -6.6,75.2 -11.5,72.3 c -4.8,-2.8 -11.3,7.9 -13.8,5.7 -2.6,-2.3 -1.3,-17.5 -1.5,-25.4 -0.1,-8 -1.7,-8.7 -5.4,-8.3 -3.6,0.4 -9.4,1.9 -14.6,2.5 -5.3,0.7 -10.192726,0.455478 -19.9,1.7 -9.793042,1.255518 -15.777697,-2.071872 -20.924317,-5.502952 -5.1,-3.4 -4.907428,-9.208593 0.624317,-14.697048 8.94701,-8.876993 25.4,-13.7 22.8,-18.1 C -66.8,5.8 -87.4,2.9 -108,0 H 0 Z" fill="#8297e0" id="path128"/>
    <path d="m 0,54 c -1.6,-8.2 -3.3,-16.4 -5.7,-17.8 -2.5,-1.4 -5.7,3.9 -7,2.8 -1.3,-1.1 -0.6,-8.7 -0.7,-12.7 -0.1,-4 -0.9,-4.4 -2.7,-4.2 -1.8,0.2 -4.7,1 -7.3,1.3 -2.7,0.3 -5.115073,0.08762 -10,0.8 -4.8,0.7 -3.593954,-4.048484 -6.124317,-5.702952 -2.6,-1.7 -8.999951,-0.528362 -3.975683,-4.397048 4.975929,-3.831466 12.7,-6.8 11.4,-9 C -33.4,2.9 -43.7,1.4 -54,0 H 0 Z" fill="#5eb9f8" id="path130"/>
  </g>
</svg>
