<?xml version="1.0" encoding="UTF-8" standalone="no"?>
<svg id="visual" viewBox="0 0 439.41122 432" width="439.41122" height="432" version="1.1" xmlns="http://www.w3.org/2000/svg" xmlns:svg="http://www.w3.org/2000/svg" style="cursor: default;">
  <defs id="defs728"/>
  <defs id="defs735"/>
  <defs id="defs742"/>
  <defs id="defs749"/>
  <defs id="defs756"/>
  <defs id="defs763"/>
  <defs id="defs770"/>
  <defs id="defs777"/>
  <defs id="defs784"/>
  <defs id="defs791"/>
  <defs id="defs798"/>
  <defs id="defs805"/>
  <defs id="defs812"/>
  <defs id="defs819"/>
  <defs id="defs826"/>
  <defs id="defs833"/>
  <g transform="translate(0,432)" id="g869">
    <path d="m 0,-432 c 17.5,58.3 35,116.6 43.2,159.4 8.2,42.8 7.1,70.2 29.7,48.2 22.7,-22.1 69,-93.7 100.1,-115.1 31,-21.3 46.7,7.6 38,49.1 -8.7,41.5 -41.8,95.6 -28.6,108 13.2,12.3 72.8,-17.2 78.9,-7.5 6.1,9.7 -41.1,58.6 -41.2,77.8 -0.1,19.1 47,8.5 93.7,10.1 46.8,1.6 93.2,15.4 112.9,34.4 19.6,19 12.5,43.3 5.3,67.6 H 0 Z" fill="#eae6d7" id="path853"/>
    <path d="m 0,-378 c 15.3,51 30.6,102 37.8,139.5 7.2,37.5 6.2,61.4 26,42.1 19.8,-19.3 60.4,-82 87.5,-100.6 27.2,-18.7 40.9,6.5 33.3,42.9 -7.6,36.3 -36.5,83.7 -25,94.5 11.6,10.8 63.7,-15 69,-6.5 5.4,8.5 -36,51.2 -36,68 -0.1,16.7 41.1,7.5 82,8.9 40.9,1.4 81.6,13.4 98.7,30.1 17.2,16.6 11,37.9 4.7,59.1 H 0 Z" fill="#f8dfc2" id="path855"/>
    <path d="m 0,-324 c 13.1,43.7 26.2,87.4 32.4,119.5 6.1,32.2 5.3,52.7 22.3,36.2 17,-16.6 51.8,-70.3 75,-86.3 23.3,-16 35.1,5.6 28.6,36.8 -6.6,31.1 -31.4,71.7 -21.5,81 9.9,9.2 54.6,-12.9 59.2,-5.6 4.6,7.3 -30.9,43.9 -30.9,58.3 -0.1,14.4 35.2,6.4 70.3,7.6 35.1,1.2 69.9,11.5 84.6,25.8 14.7,14.3 9.4,32.5 4,50.7 H 0 Z" fill="#ffc8ad" id="path857"/>
    <path d="m 0,-270 c 10.9,36.4 21.9,72.8 27,99.6 5.1,26.8 4.4,43.9 18.6,30.1 14.1,-13.8 43.1,-58.5 62.5,-71.9 19.4,-13.3 29.2,4.7 23.8,30.7 -5.5,25.9 -26.1,59.8 -17.9,67.5 8.3,7.7 45.5,-10.7 49.3,-4.7 3.9,6.1 -25.7,36.6 -25.8,48.6 0,12 29.4,5.4 58.7,6.4 29.2,1 58.2,9.6 70.5,21.5 12.2,11.9 7.8,27 3.3,42.2 H 0 Z" fill="#ffafa8" id="path859"/>
    <path d="m 0,-216 c 8.7,29.1 17.5,58.3 21.6,79.7 4.1,21.4 3.5,35.1 14.9,24.1 11.3,-11.1 34.5,-46.9 50,-57.5 15.5,-10.7 23.4,3.7 19,24.5 -4.3,20.7 -20.9,47.8 -14.3,54 6.6,6.2 36.4,-8.6 39.5,-3.7 3,4.8 -20.6,29.3 -20.7,38.8 0,9.6 23.5,4.3 46.9,5.1 23.4,0.8 46.6,7.7 56.4,17.2 9.9,9.5 6.3,21.7 2.7,33.8 H 0 Z" fill="#ff97b4" id="path861"/>
    <path d="m 0,-162 c 6.6,21.9 13.1,43.7 16.2,59.8 3.1,16 2.7,26.3 11.1,18 8.5,-8.3 25.9,-35.1 37.6,-43.1 11.6,-8 17.5,2.8 14.2,18.4 -3.2,15.6 -15.6,35.9 -10.7,40.5 5,4.6 27.3,-6.4 29.6,-2.8 2.3,3.6 -15.4,22 -15.5,29.1 0,7.2 17.7,3.3 35.2,3.9 17.5,0.6 34.9,5.7 42.3,12.9 7.4,7.1 4.7,16.2 2,25.3 H 0 Z" fill="#fb84ce" id="path863"/>
    <path d="m 0,-108 c 4.4,14.6 8.7,29.1 10.8,39.8 2,10.8 1.8,17.6 7.4,12.1 5.7,-5.5 17.3,-23.4 25,-28.8 7.8,-5.3 11.7,1.9 9.6,12.3 -2.2,10.4 -10.5,23.9 -7.2,27 3.3,3.1 18.2,-4.3 19.7,-1.9 C 66.9,-45 55,-32.8 55,-28 c 0,4.8 11.8,2.1 23.5,2.5 11.7,0.4 23.3,3.8 28.2,8.6 4.9,4.8 3.1,10.8 1.3,16.9 H 0 Z" fill="#d17fef" id="path865"/>
    <path d="m 0,-54 c 2.2,7.3 4.4,14.6 5.4,19.9 1,5.4 0.9,8.8 3.7,6 2.8,-2.7 8.6,-11.7 12.5,-14.3 3.9,-2.7 5.9,0.9 4.8,6.1 -1.1,5.2 -5.2,12 -3.6,13.5 1.7,1.5 9.1,-2.1 9.9,-0.9 0.7,1.2 -5.2,7.3 -5.2,9.7 0,2.4 5.9,1.1 11.7,1.3 5.9,0.2 11.7,1.9 14.1,4.3 2.5,2.3 1.6,5.4 0.7,8.4 H 0 Z" fill="#ae81ff" id="path867"/>
  </g>
</svg>