<?xml version="1.0" encoding="UTF-8" standalone="no"?>
<svg
   id="visual"
   viewBox="0 0 432 432"
   width="432"
   height="432"
   version="1.1"
   sodipodi:docname="bg_image_light.svg"
   xmlns:inkscape="http://www.inkscape.org/namespaces/inkscape"
   xmlns:sodipodi="http://sodipodi.sourceforge.net/DTD/sodipodi-0.dtd"
   xmlns="http://www.w3.org/2000/svg"
   xmlns:svg="http://www.w3.org/2000/svg">
  <defs
     id="defs728" />
  <defs
     id="defs735" />
  <defs
     id="defs742" />
  <defs
     id="defs749" />
  <defs
     id="defs756" />
  <defs
     id="defs763" />
  <defs
     id="defs770" />
  <defs
     id="defs777" />
  <defs
     id="defs784" />
  <defs
     id="defs791" />
  <defs
     id="defs798" />
  <defs
     id="defs805" />
  <defs
     id="defs812" />
  <defs
     id="defs819" />
  <defs
     id="defs826" />
  <defs
     id="defs833" />
  <g
     transform="translate(432)"
     id="g851">
    <path
       d="m 0,432 c -13.2,-65.6 -26.4,-131.2 -45.8,-142.6 -19.5,-11.4 -45.3,31.5 -55.6,22.5 -10.3,-8.9 -5.1,-69.8 -5.7,-101.6 -0.7,-31.9 -7,-34.7 -21.6,-33.1 -14.6,1.6 -37.5,7.6 -58.7,10.2 -21.1,2.5 -40.6,1.6 -79.6,6.6 -39,4.9 -97.5,15.8 -117.9,2.1 -20.5,-13.7 -2.9,-52 36.8,-83 39.7,-31 101.6,-54.8 91.3,-72.4 C -267.1,23 -349.5,11.5 -432,0 H 0 Z"
       fill="#eae6d7"
       id="path835" />
    <path
       d="m 0,378 c -11.5,-57.4 -23.1,-114.8 -40.1,-124.8 -17,-9.9 -39.6,27.6 -48.6,19.8 -9,-7.9 -4.5,-61.1 -5,-89 -0.6,-27.9 -6.1,-30.4 -18.9,-29 -12.8,1.4 -32.8,6.7 -51.4,9 -18.5,2.2 -35.5,1.4 -69.6,5.7 -34.1,4.4 -85.3,13.9 -103.2,1.9 -17.9,-12 -2.5,-45.5 32.2,-72.6 34.8,-27.2 88.9,-48 79.9,-63.4 C -233.7,20.2 -305.9,10.1 -378,0 H 0 Z"
       fill="#f8dfc2"
       id="path837" />
    <path
       d="m 0,324 c -9.9,-49.2 -19.8,-98.4 -34.4,-107 -14.6,-8.5 -33.9,23.7 -41.6,17 -7.7,-6.8 -3.9,-52.4 -4.4,-76.3 -0.4,-23.9 -5.2,-26 -16.1,-24.8 -11,1.2 -28.2,5.7 -44,7.6 -15.9,2 -30.5,1.2 -59.7,5 -29.3,3.7 -73.1,11.9 -88.5,1.6 -15.3,-10.3 -2.2,-39 27.6,-62.3 29.8,-23.2 76.2,-41.1 68.5,-54.3 C -200.3,17.3 -262.2,8.6 -324,0 H 0 Z"
       fill="#ffc8ad"
       id="path839" />
    <path
       d="m 0,270 c -8.2,-41 -16.5,-82 -28.6,-89.1 -12.2,-7.1 -28.3,19.7 -34.7,14.1 -6.5,-5.6 -3.3,-43.7 -3.7,-63.6 -0.3,-19.9 -4.3,-21.7 -13.5,-20.7 -9.1,1 -23.4,4.8 -36.6,6.4 -13.2,1.6 -25.4,1 -49.8,4.1 -24.3,3.1 -60.9,9.9 -73.7,1.4 -12.8,-8.6 -1.8,-32.5 23,-51.9 24.9,-19.4 63.5,-34.3 57.1,-45.3 C -166.9,14.4 -218.5,7.2 -270,0 H 0 Z"
       fill="#ffafa8"
       id="path841" />
    <path
       d="m 0,216 c -6.6,-32.8 -13.2,-65.6 -22.9,-71.3 -9.8,-5.7 -22.6,15.8 -27.8,11.3 -5.1,-4.5 -2.6,-34.9 -2.9,-50.9 -0.3,-15.9 -3.5,-17.3 -10.8,-16.5 -7.3,0.8 -18.7,3.8 -29.3,5.1 -10.6,1.3 -20.3,0.8 -39.8,3.3 -19.5,2.5 -48.7,7.9 -59,1.1 -10.2,-6.9 -1.4,-26 18.5,-41.5 19.8,-15.6 50.7,-27.4 45.6,-36.3 C -133.5,11.5 -174.8,5.8 -216,0 H 0 Z"
       fill="#ff97b4"
       id="path843" />
    <path
       d="m 0,162 c -4.9,-24.6 -9.9,-49.2 -17.2,-53.5 -7.3,-4.2 -16.9,11.8 -20.8,8.5 -3.9,-3.4 -1.9,-26.2 -2.2,-38.1 -0.2,-12 -2.6,-13.1 -8.1,-12.5 -5.5,0.6 -14,2.9 -22,3.9 -7.9,0.9 -15.2,0.6 -29.8,2.4 -14.6,1.9 -36.6,6 -44.2,0.8 -7.7,-5.1 -1.1,-19.5 13.8,-31.1 14.9,-11.6 38.1,-20.5 34.2,-27.1 C -100.2,8.6 -131.1,4.3 -162,0 H 0 Z"
       fill="#fb84ce"
       id="path845" />
    <path
       d="M 0,108 C -3.3,91.6 -6.6,75.2 -11.5,72.3 c -4.8,-2.8 -11.3,7.9 -13.8,5.7 -2.6,-2.3 -1.3,-17.5 -1.5,-25.4 -0.1,-8 -1.7,-8.7 -5.4,-8.3 -3.6,0.4 -9.4,1.9 -14.6,2.5 -5.3,0.7 -10.2,0.4 -19.9,1.7 -9.8,1.2 -24.4,4 -29.5,0.5 -5.1,-3.4 -0.8,-13 9.2,-20.7 9.9,-7.8 25.4,-13.7 22.8,-18.1 C -66.8,5.8 -87.4,2.9 -108,0 H 0 Z"
       fill="#d17fef"
       id="path847" />
    <path
       d="m 0,54 c -1.6,-8.2 -3.3,-16.4 -5.7,-17.8 -2.5,-1.4 -5.7,3.9 -7,2.8 -1.3,-1.1 -0.6,-8.7 -0.7,-12.7 -0.1,-4 -0.9,-4.4 -2.7,-4.2 -1.8,0.2 -4.7,1 -7.3,1.3 -2.7,0.3 -5.1,0.2 -10,0.8 -4.8,0.7 -12.2,2 -14.7,0.3 -2.6,-1.7 -0.4,-6.5 4.6,-10.4 5,-3.8 12.7,-6.8 11.4,-9 C -33.4,2.9 -43.7,1.4 -54,0 H 0 Z"
       fill="#ae81ff"
       id="path849" />
  </g>
</svg>
