<svg id="visual" viewBox="0 0 3200 900" width="3200" height="900" xmlns="http://www.w3.org/2000/svg" xmlns:xlink="http://www.w3.org/1999/xlink" version="1.1"><rect x="0" y="0" width="3200" height="900" fill="#272822"></rect><path d="M0 329L28 302.5C56 276 112 223 168.2 189.7C224.3 156.3 280.7 142.7 336.8 145.2C393 147.7 449 166.3 505.2 202.5C561.3 238.7 617.7 292.3 673.8 311.8C730 331.3 786 316.7 842.2 323.7C898.3 330.7 954.7 359.3 1010.8 326.5C1067 293.7 1123 199.3 1179 165.2C1235 131 1291 157 1347.2 172.5C1403.3 188 1459.7 193 1515.8 185.2C1572 177.3 1628 156.7 1684.2 208.3C1740.3 260 1796.7 384 1852.8 409.5C1909 435 1965 362 2021 340.3C2077 318.7 2133 348.3 2189.2 358.3C2245.3 368.3 2301.7 358.7 2357.8 348.3C2414 338 2470 327 2526.2 314.3C2582.3 301.7 2638.7 287.3 2694.8 281.8C2751 276.3 2807 279.7 2863.2 255.3C2919.3 231 2975.7 179 3031.8 214.7C3088 250.3 3144 373.7 3172 435.3L3200 497L3200 901L3172 901C3144 901 3088 901 3031.8 901C2975.7 901 2919.3 901 2863.2 901C2807 901 2751 901 2694.8 901C2638.7 901 2582.3 901 2526.2 901C2470 901 2414 901 2357.8 901C2301.7 901 2245.3 901 2189.2 901C2133 901 2077 901 2021 901C1965 901 1909 901 1852.8 901C1796.7 901 1740.3 901 1684.2 901C1628 901 1572 901 1515.8 901C1459.7 901 1403.3 901 1347.2 901C1291 901 1235 901 1179 901C1123 901 1067 901 1010.8 901C954.7 901 898.3 901 842.2 901C786 901 730 901 673.8 901C617.7 901 561.3 901 505.2 901C449 901 393 901 336.8 901C280.7 901 224.3 901 168.2 901C112 901 56 901 28 901L0 901Z" fill="#3e3d32"></path><path d="M0 253L28 258.2C56 263.3 112 273.7 168.2 312.7C224.3 351.7 280.7 419.3 336.8 403.2C393 387 449 287 505.2 241C561.3 195 617.7 203 673.8 225.5C730 248 786 285 842.2 292C898.3 299 954.7 276 1010.8 289.8C1067 303.7 1123 354.3 1179 364.8C1235 375.3 1291 345.7 1347.2 356C1403.3 366.3 1459.7 416.7 1515.8 434C1572 451.3 1628 435.7 1684.2 405.7C1740.3 375.7 1796.7 331.3 1852.8 344.7C1909 358 1965 429 2021 460C2077 491 2133 482 2189.2 466.5C2245.3 451 2301.7 429 2357.8 440.8C2414 452.7 2470 498.3 2526.2 463.2C2582.3 428 2638.7 312 2694.8 260.7C2751 209.3 2807 222.7 2863.2 264.2C2919.3 305.7 2975.7 375.3 3031.8 386.5C3088 397.7 3144 350.3 3172 326.7L3200 303L3200 901L3172 901C3144 901 3088 901 3031.8 901C2975.7 901 2919.3 901 2863.2 901C2807 901 2751 901 2694.8 901C2638.7 901 2582.3 901 2526.2 901C2470 901 2414 901 2357.8 901C2301.7 901 2245.3 901 2189.2 901C2133 901 2077 901 2021 901C1965 901 1909 901 1852.8 901C1796.7 901 1740.3 901 1684.2 901C1628 901 1572 901 1515.8 901C1459.7 901 1403.3 901 1347.2 901C1291 901 1235 901 1179 901C1123 901 1067 901 1010.8 901C954.7 901 898.3 901 842.2 901C786 901 730 901 673.8 901C617.7 901 561.3 901 505.2 901C449 901 393 901 336.8 901C280.7 901 224.3 901 168.2 901C112 901 56 901 28 901L0 901Z" fill="#36362d"></path><path d="M0 470L28 492.3C56 514.7 112 559.3 168.2 539.8C224.3 520.3 280.7 436.7 336.8 398.3C393 360 449 367 505.2 371.8C561.3 376.7 617.7 379.3 673.8 369.7C730 360 786 338 842.2 336.5C898.3 335 954.7 354 1010.8 395.2C1067 436.3 1123 499.7 1179 499.5C1235 499.3 1291 435.7 1347.2 401.3C1403.3 367 1459.7 362 1515.8 344.3C1572 326.7 1628 296.3 1684.2 282.8C1740.3 269.3 1796.7 272.7 1852.8 325.7C1909 378.7 1965 481.3 2021 484.8C2077 488.3 2133 392.7 2189.2 394.8C2245.3 397 2301.7 497 2357.8 522.8C2414 548.7 2470 500.3 2526.2 453.7C2582.3 407 2638.7 362 2694.8 362.5C2751 363 2807 409 2863.2 428.7C2919.3 448.3 2975.7 441.7 3031.8 432.5C3088 423.3 3144 411.7 3172 405.8L3200 400L3200 901L3172 901C3144 901 3088 901 3031.8 901C2975.7 901 2919.3 901 2863.2 901C2807 901 2751 901 2694.8 901C2638.7 901 2582.3 901 2526.2 901C2470 901 2414 901 2357.8 901C2301.7 901 2245.3 901 2189.2 901C2133 901 2077 901 2021 901C1965 901 1909 901 1852.8 901C1796.7 901 1740.3 901 1684.2 901C1628 901 1572 901 1515.8 901C1459.7 901 1403.3 901 1347.2 901C1291 901 1235 901 1179 901C1123 901 1067 901 1010.8 901C954.7 901 898.3 901 842.2 901C786 901 730 901 673.8 901C617.7 901 561.3 901 505.2 901C449 901 393 901 336.8 901C280.7 901 224.3 901 168.2 901C112 901 56 901 28 901L0 901Z" fill="#2f2f28"></path><path d="M0 345L28 387.2C56 429.3 112 513.7 168.2 517.2C224.3 520.7 280.7 443.3 336.8 431.5C393 419.7 449 473.3 505.2 477.5C561.3 481.7 617.7 436.3 673.8 413.8C730 391.3 786 391.7 842.2 434.5C898.3 477.3 954.7 562.7 1010.8 594C1067 625.3 1123 602.7 1179 586C1235 569.3 1291 558.7 1347.2 536C1403.3 513.3 1459.7 478.7 1515.8 484.2C1572 489.7 1628 535.3 1684.2 550.3C1740.3 565.3 1796.7 549.7 1852.8 517.7C1909 485.7 1965 437.3 2021 440C2077 442.7 2133 496.3 2189.2 527.3C2245.3 558.3 2301.7 566.7 2357.8 575.5C2414 584.3 2470 593.7 2526.2 598.3C2582.3 603 2638.7 603 2694.8 582.5C2751 562 2807 521 2863.2 486.5C2919.3 452 2975.7 424 3031.8 426.5C3088 429 3144 462 3172 478.5L3200 495L3200 901L3172 901C3144 901 3088 901 3031.8 901C2975.7 901 2919.3 901 2863.2 901C2807 901 2751 901 2694.8 901C2638.7 901 2582.3 901 2526.2 901C2470 901 2414 901 2357.8 901C2301.7 901 2245.3 901 2189.2 901C2133 901 2077 901 2021 901C1965 901 1909 901 1852.8 901C1796.7 901 1740.3 901 1684.2 901C1628 901 1572 901 1515.8 901C1459.7 901 1403.3 901 1347.2 901C1291 901 1235 901 1179 901C1123 901 1067 901 1010.8 901C954.7 901 898.3 901 842.2 901C786 901 730 901 673.8 901C617.7 901 561.3 901 505.2 901C449 901 393 901 336.8 901C280.7 901 224.3 901 168.2 901C112 901 56 901 28 901L0 901Z" fill="#282923"></path><path d="M0 489L28 491.7C56 494.3 112 499.7 168.2 502.3C224.3 505 280.7 505 336.8 536.5C393 568 449 631 505.2 630.8C561.3 630.7 617.7 567.3 673.8 535.5C730 503.7 786 503.3 842.2 516.8C898.3 530.3 954.7 557.7 1010.8 568.7C1067 579.7 1123 574.3 1179 556.8C1235 539.3 1291 509.7 1347.2 520C1403.3 530.3 1459.7 580.7 1515.8 604.7C1572 628.7 1628 626.3 1684.2 614C1740.3 601.7 1796.7 579.3 1852.8 561.7C1909 544 1965 531 2021 530C2077 529 2133 540 2189.2 559.7C2245.3 579.3 2301.7 607.7 2357.8 596.2C2414 584.7 2470 533.3 2526.2 519.8C2582.3 506.3 2638.7 530.7 2694.8 565.7C2751 600.7 2807 646.3 2863.2 640.2C2919.3 634 2975.7 576 3031.8 557C3088 538 3144 558 3172 568L3200 578L3200 901L3172 901C3144 901 3088 901 3031.8 901C2975.7 901 2919.3 901 2863.2 901C2807 901 2751 901 2694.8 901C2638.7 901 2582.3 901 2526.2 901C2470 901 2414 901 2357.8 901C2301.7 901 2245.3 901 2189.2 901C2133 901 2077 901 2021 901C1965 901 1909 901 1852.8 901C1796.7 901 1740.3 901 1684.2 901C1628 901 1572 901 1515.8 901C1459.7 901 1403.3 901 1347.2 901C1291 901 1235 901 1179 901C1123 901 1067 901 1010.8 901C954.7 901 898.3 901 842.2 901C786 901 730 901 673.8 901C617.7 901 561.3 901 505.2 901C449 901 393 901 336.8 901C280.7 901 224.3 901 168.2 901C112 901 56 901 28 901L0 901Z" fill="#272822"></path><path d="M0 646L28 632.8C56 619.7 112 593.3 168.2 574C224.3 554.7 280.7 542.3 336.8 570.5C393 598.7 449 667.3 505.2 672.8C561.3 678.3 617.7 620.7 673.8 584C730 547.3 786 531.7 842.2 550.3C898.3 569 954.7 622 1010.8 640C1067 658 1123 641 1179 613.3C1235 585.7 1291 547.3 1347.2 530C1403.3 512.7 1459.7 516.3 1515.8 547.8C1572 579.3 1628 638.7 1684.2 639.2C1740.3 639.7 1796.7 581.3 1852.8 550.2C1909 519 1965 515 2021 519.7C2077 524.3 2133 537.7 2189.2 571.3C2245.3 605 2301.7 659 2357.8 652C2414 645 2470 577 2526.2 563.5C2582.3 550 2638.7 591 2694.8 628.3C2751 665.7 2807 699.3 2863.2 689.8C2919.3 680.3 2975.7 627.7 3031.8 602.7C3088 577.7 3144 580.3 3172 581.7L3200 583L3200 901L3172 901C3144 901 3088 901 3031.8 901C2975.7 901 2919.3 901 2863.2 901C2807 901 2751 901 2694.8 901C2638.7 901 2582.3 901 2526.2 901C2470 901 2414 901 2357.8 901C2301.7 901 2245.3 901 2189.2 901C2133 901 2077 901 2021 901C1965 901 1909 901 1852.8 901C1796.7 901 1740.3 901 1684.2 901C1628 901 1572 901 1515.8 901C1459.7 901 1403.3 901 1347.2 901C1291 901 1235 901 1179 901C1123 901 1067 901 1010.8 901C954.7 901 898.3 901 842.2 901C786 901 730 901 673.8 901C617.7 901 561.3 901 505.2 901C449 901 393 901 336.8 901C280.7 901 224.3 901 168.2 901C112 901 56 901 28 901L0 901Z" fill="#282923"></path><path d="M0 683L28 698.3C56 713.7 112 744.3 168.2 731.8C224.3 719.3 280.7 663.7 336.8 644.2C393 624.7 449 641.3 505.2 664.2C561.3 687 617.7 716 673.8 735C730 754 786 763 842.2 745.8C898.3 728.7 954.7 685.3 1010.8 658C1067 630.7 1123 619.3 1179 613.8C1235 608.3 1291 608.7 1347.2 606.7C1403.3 604.7 1459.7 600.3 1515.8 603.5C1572 606.7 1628 617.3 1684.2 630.2C1740.3 643 1796.7 658 1852.8 668.8C1909 679.7 1965 686.3 2021 671.8C2077 657.3 2133 621.7 2189.2 608.3C2245.3 595 2301.7 604 2357.8 621C2414 638 2470 663 2526.2 667.5C2582.3 672 2638.7 656 2694.8 647C2751 638 2807 636 2863.2 657.8C2919.3 679.7 2975.7 725.3 3031.8 732.5C3088 739.7 3144 708.3 3172 692.7L3200 677L3200 901L3172 901C3144 901 3088 901 3031.8 901C2975.7 901 2919.3 901 2863.2 901C2807 901 2751 901 2694.8 901C2638.7 901 2582.3 901 2526.2 901C2470 901 2414 901 2357.8 901C2301.7 901 2245.3 901 2189.2 901C2133 901 2077 901 2021 901C1965 901 1909 901 1852.8 901C1796.7 901 1740.3 901 1684.2 901C1628 901 1572 901 1515.8 901C1459.7 901 1403.3 901 1347.2 901C1291 901 1235 901 1179 901C1123 901 1067 901 1010.8 901C954.7 901 898.3 901 842.2 901C786 901 730 901 673.8 901C617.7 901 561.3 901 505.2 901C449 901 393 901 336.8 901C280.7 901 224.3 901 168.2 901C112 901 56 901 28 901L0 901Z" fill="#2f2f28"></path><path d="M0 741L28 743.8C56 746.7 112 752.3 168.2 762.5C224.3 772.7 280.7 787.3 336.8 782C393 776.7 449 751.3 505.2 741.3C561.3 731.3 617.7 736.7 673.8 740.2C730 743.7 786 745.3 842.2 743C898.3 740.7 954.7 734.3 1010.8 729.5C1067 724.7 1123 721.3 1179 733.7C1235 746 1291 774 1347.2 772C1403.3 770 1459.7 738 1515.8 741.5C1572 745 1628 784 1684.2 792.3C1740.3 800.7 1796.7 778.3 1852.8 757.3C1909 736.3 1965 716.7 2021 722.3C2077 728 2133 759 2189.2 755.3C2245.3 751.7 2301.7 713.3 2357.8 692.8C2414 672.3 2470 669.7 2526.2 687C2582.3 704.3 2638.7 741.7 2694.8 761.3C2751 781 2807 783 2863.2 769C2919.3 755 2975.7 725 3031.8 716.5C3088 708 3144 721 3172 727.5L3200 734L3200 901L3172 901C3144 901 3088 901 3031.8 901C2975.7 901 2919.3 901 2863.2 901C2807 901 2751 901 2694.8 901C2638.7 901 2582.3 901 2526.2 901C2470 901 2414 901 2357.8 901C2301.7 901 2245.3 901 2189.2 901C2133 901 2077 901 2021 901C1965 901 1909 901 1852.8 901C1796.7 901 1740.3 901 1684.2 901C1628 901 1572 901 1515.8 901C1459.7 901 1403.3 901 1347.2 901C1291 901 1235 901 1179 901C1123 901 1067 901 1010.8 901C954.7 901 898.3 901 842.2 901C786 901 730 901 673.8 901C617.7 901 561.3 901 505.2 901C449 901 393 901 336.8 901C280.7 901 224.3 901 168.2 901C112 901 56 901 28 901L0 901Z" fill="#36362d"></path><path d="M0 827L28 834C56 841 112 855 168.2 845.8C224.3 836.7 280.7 804.3 336.8 787C393 769.7 449 767.3 505.2 780.2C561.3 793 617.7 821 673.8 821.8C730 822.7 786 796.3 842.2 785.5C898.3 774.7 954.7 779.3 1010.8 787C1067 794.7 1123 805.3 1179 809.2C1235 813 1291 810 1347.2 800.8C1403.3 791.7 1459.7 776.3 1515.8 770.3C1572 764.3 1628 767.7 1684.2 769.2C1740.3 770.7 1796.7 770.3 1852.8 782.5C1909 794.7 1965 819.3 2021 828.5C2077 837.7 2133 831.3 2189.2 821C2245.3 810.7 2301.7 796.3 2357.8 789.3C2414 782.3 2470 782.7 2526.2 783.2C2582.3 783.7 2638.7 784.3 2694.8 791C2751 797.7 2807 810.3 2863.2 821.8C2919.3 833.3 2975.7 843.7 3031.8 840.2C3088 836.7 3144 819.3 3172 810.7L3200 802L3200 901L3172 901C3144 901 3088 901 3031.8 901C2975.7 901 2919.3 901 2863.2 901C2807 901 2751 901 2694.8 901C2638.7 901 2582.3 901 2526.2 901C2470 901 2414 901 2357.8 901C2301.7 901 2245.3 901 2189.2 901C2133 901 2077 901 2021 901C1965 901 1909 901 1852.8 901C1796.7 901 1740.3 901 1684.2 901C1628 901 1572 901 1515.8 901C1459.7 901 1403.3 901 1347.2 901C1291 901 1235 901 1179 901C1123 901 1067 901 1010.8 901C954.7 901 898.3 901 842.2 901C786 901 730 901 673.8 901C617.7 901 561.3 901 505.2 901C449 901 393 901 336.8 901C280.7 901 224.3 901 168.2 901C112 901 56 901 28 901L0 901Z" fill="#3e3d32"></path></svg>