<?xml version="1.0" encoding="UTF-8" standalone="no"?>
<svg
   class="hbot"
   id="visual"
   viewBox="0 0 1920 67"
   width="100%"
   version="1.1">
  <path
     class="pink_7"
     d="m 0,21.341911 214,25.312501 212,-27.794118 214,0.496323 214,-3.970588 212,14.889706 214,11.41544 214,-23.327205 212,8.933825 214,0.496323 214,-0.992648 212,8.4375 214,-18.36397 214,4.466911 212,12.408089 214,-18.860294 214,26.801469 212,-9.92647 214,-6.452205 V 67.5 H 3626 3414 3200 2986 2774 2560 2346 2134 1920 1706 1494 1280 1066 854 640 426 214 0 Z"
     fill="#f92672"
     id="path6"
     style="stroke-width:1" />
  <path
     class="outer_9"
     d="m 0,48.143383 214,-7.941178 212,15.882355 214,4.963235 214,-14.889708 212,5.955883 214,4.963235 214,-19.356618 212,-12.904411 214,11.415441 214,6.452205 212,0.992648 214,11.41544 214,2.48162 212,-23.327208 214,4.963235 214,10.422795 212,-6.452205 214,1.985293 V 67.5 H 3626 3414 3200 2986 2774 2560 2346 2134 1920 1706 1494 1280 1066 854 640 426 214 0 Z"
     fill="#3e3d32"
     id="path8"
     style="stroke-width:1" />
</svg>
