<svg id="visual" viewBox="0 0 3200 900" width="3200" height="900" xmlns="http://www.w3.org/2000/svg" xmlns:xlink="http://www.w3.org/1999/xlink" version="1.1"><rect x="0" y="0" width="3200" height="900" fill="#3e3d32"></rect><path d="M0 462L28 455.8C56 449.7 112 437.3 168.2 418.8C224.3 400.3 280.7 375.7 336.8 358.7C393 341.7 449 332.3 505.2 295.3C561.3 258.3 617.7 193.7 673.8 202.3C730 211 786 293 842.2 331.5C898.3 370 954.7 365 1010.8 379.7C1067 394.3 1123 428.7 1179 395C1235 361.3 1291 259.7 1347.2 253C1403.3 246.3 1459.7 334.7 1515.8 346.3C1572 358 1628 293 1684.2 288.3C1740.3 283.7 1796.7 339.3 1852.8 370.3C1909 401.3 1965 407.7 2021 406.5C2077 405.3 2133 396.7 2189.2 379.8C2245.3 363 2301.7 338 2357.8 323.2C2414 308.3 2470 303.7 2526.2 274.5C2582.3 245.3 2638.7 191.7 2694.8 206.5C2751 221.3 2807 304.7 2863.2 309.3C2919.3 314 2975.7 240 3031.8 247.7C3088 255.3 3144 344.7 3172 389.3L3200 434L3200 901L3172 901C3144 901 3088 901 3031.8 901C2975.7 901 2919.3 901 2863.2 901C2807 901 2751 901 2694.8 901C2638.7 901 2582.3 901 2526.2 901C2470 901 2414 901 2357.8 901C2301.7 901 2245.3 901 2189.2 901C2133 901 2077 901 2021 901C1965 901 1909 901 1852.8 901C1796.7 901 1740.3 901 1684.2 901C1628 901 1572 901 1515.8 901C1459.7 901 1403.3 901 1347.2 901C1291 901 1235 901 1179 901C1123 901 1067 901 1010.8 901C954.7 901 898.3 901 842.2 901C786 901 730 901 673.8 901C617.7 901 561.3 901 505.2 901C449 901 393 901 336.8 901C280.7 901 224.3 901 168.2 901C112 901 56 901 28 901L0 901Z" fill="#272822"></path><path d="M0 246L28 287C56 328 112 410 168.2 455.7C224.3 501.3 280.7 510.7 336.8 485.5C393 460.3 449 400.7 505.2 388.2C561.3 375.7 617.7 410.3 673.8 389.3C730 368.3 786 291.7 842.2 262.8C898.3 234 954.7 253 1010.8 269.7C1067 286.3 1123 300.7 1179 308C1235 315.3 1291 315.7 1347.2 305.7C1403.3 295.7 1459.7 275.3 1515.8 267.2C1572 259 1628 263 1684.2 260.8C1740.3 258.7 1796.7 250.3 1852.8 292.8C1909 335.3 1965 428.7 2021 421.7C2077 414.7 2133 307.3 2189.2 259.7C2245.3 212 2301.7 224 2357.8 275.5C2414 327 2470 418 2526.2 446.3C2582.3 474.7 2638.7 440.3 2694.8 389.7C2751 339 2807 272 2863.2 242.3C2919.3 212.7 2975.7 220.3 3031.8 239.3C3088 258.3 3144 288.7 3172 303.8L3200 319L3200 901L3172 901C3144 901 3088 901 3031.8 901C2975.7 901 2919.3 901 2863.2 901C2807 901 2751 901 2694.8 901C2638.7 901 2582.3 901 2526.2 901C2470 901 2414 901 2357.8 901C2301.7 901 2245.3 901 2189.2 901C2133 901 2077 901 2021 901C1965 901 1909 901 1852.8 901C1796.7 901 1740.3 901 1684.2 901C1628 901 1572 901 1515.8 901C1459.7 901 1403.3 901 1347.2 901C1291 901 1235 901 1179 901C1123 901 1067 901 1010.8 901C954.7 901 898.3 901 842.2 901C786 901 730 901 673.8 901C617.7 901 561.3 901 505.2 901C449 901 393 901 336.8 901C280.7 901 224.3 901 168.2 901C112 901 56 901 28 901L0 901Z" fill="#2d2e26"></path><path d="M0 273L28 294.8C56 316.7 112 360.3 168.2 398.2C224.3 436 280.7 468 336.8 449C393 430 449 360 505.2 365.7C561.3 371.3 617.7 452.7 673.8 469.5C730 486.3 786 438.7 842.2 405C898.3 371.3 954.7 351.7 1010.8 341.2C1067 330.7 1123 329.3 1179 332C1235 334.7 1291 341.3 1347.2 345C1403.3 348.7 1459.7 349.3 1515.8 362.2C1572 375 1628 400 1684.2 406C1740.3 412 1796.7 399 1852.8 396C1909 393 1965 400 2021 404.8C2077 409.7 2133 412.3 2189.2 402.7C2245.3 393 2301.7 371 2357.8 385.3C2414 399.7 2470 450.3 2526.2 469.5C2582.3 488.7 2638.7 476.3 2694.8 459.8C2751 443.3 2807 422.7 2863.2 404.7C2919.3 386.7 2975.7 371.3 3031.8 383.8C3088 396.3 3144 436.7 3172 456.8L3200 477L3200 901L3172 901C3144 901 3088 901 3031.8 901C2975.7 901 2919.3 901 2863.2 901C2807 901 2751 901 2694.8 901C2638.7 901 2582.3 901 2526.2 901C2470 901 2414 901 2357.8 901C2301.7 901 2245.3 901 2189.2 901C2133 901 2077 901 2021 901C1965 901 1909 901 1852.8 901C1796.7 901 1740.3 901 1684.2 901C1628 901 1572 901 1515.8 901C1459.7 901 1403.3 901 1347.2 901C1291 901 1235 901 1179 901C1123 901 1067 901 1010.8 901C954.7 901 898.3 901 842.2 901C786 901 730 901 673.8 901C617.7 901 561.3 901 505.2 901C449 901 393 901 336.8 901C280.7 901 224.3 901 168.2 901C112 901 56 901 28 901L0 901Z" fill="#33332b"></path><path d="M0 540L28 528.5C56 517 112 494 168.2 504.5C224.3 515 280.7 559 336.8 549.3C393 539.7 449 476.3 505.2 468.7C561.3 461 617.7 509 673.8 538C730 567 786 577 842.2 565.3C898.3 553.7 954.7 520.3 1010.8 515.8C1067 511.3 1123 535.7 1179 531.7C1235 527.7 1291 495.3 1347.2 497.8C1403.3 500.3 1459.7 537.7 1515.8 547.8C1572 558 1628 541 1684.2 509.7C1740.3 478.3 1796.7 432.7 1852.8 406.5C1909 380.3 1965 373.7 2021 402.2C2077 430.7 2133 494.3 2189.2 529.2C2245.3 564 2301.7 570 2357.8 556C2414 542 2470 508 2526.2 500.3C2582.3 492.7 2638.7 511.3 2694.8 503.5C2751 495.7 2807 461.3 2863.2 474.7C2919.3 488 2975.7 549 3031.8 566C3088 583 3144 556 3172 542.5L3200 529L3200 901L3172 901C3144 901 3088 901 3031.8 901C2975.7 901 2919.3 901 2863.2 901C2807 901 2751 901 2694.8 901C2638.7 901 2582.3 901 2526.2 901C2470 901 2414 901 2357.8 901C2301.7 901 2245.3 901 2189.2 901C2133 901 2077 901 2021 901C1965 901 1909 901 1852.8 901C1796.7 901 1740.3 901 1684.2 901C1628 901 1572 901 1515.8 901C1459.7 901 1403.3 901 1347.2 901C1291 901 1235 901 1179 901C1123 901 1067 901 1010.8 901C954.7 901 898.3 901 842.2 901C786 901 730 901 673.8 901C617.7 901 561.3 901 505.2 901C449 901 393 901 336.8 901C280.7 901 224.3 901 168.2 901C112 901 56 901 28 901L0 901Z" fill="#3a392f"></path><path d="M0 499L28 515.5C56 532 112 565 168.2 587.8C224.3 610.7 280.7 623.3 336.8 624C393 624.7 449 613.3 505.2 583.8C561.3 554.3 617.7 506.7 673.8 495.7C730 484.7 786 510.3 842.2 539.7C898.3 569 954.7 602 1010.8 591.3C1067 580.7 1123 526.3 1179 507C1235 487.7 1291 503.3 1347.2 505C1403.3 506.7 1459.7 494.3 1515.8 507.7C1572 521 1628 560 1684.2 551.8C1740.3 543.7 1796.7 488.3 1852.8 456.8C1909 425.3 1965 417.7 2021 450.2C2077 482.7 2133 555.3 2189.2 564.2C2245.3 573 2301.7 518 2357.8 513.5C2414 509 2470 555 2526.2 553.5C2582.3 552 2638.7 503 2694.8 478.7C2751 454.3 2807 454.7 2863.2 453.2C2919.3 451.7 2975.7 448.3 3031.8 458C3088 467.7 3144 490.3 3172 501.7L3200 513L3200 901L3172 901C3144 901 3088 901 3031.8 901C2975.7 901 2919.3 901 2863.2 901C2807 901 2751 901 2694.8 901C2638.7 901 2582.3 901 2526.2 901C2470 901 2414 901 2357.8 901C2301.7 901 2245.3 901 2189.2 901C2133 901 2077 901 2021 901C1965 901 1909 901 1852.8 901C1796.7 901 1740.3 901 1684.2 901C1628 901 1572 901 1515.8 901C1459.7 901 1403.3 901 1347.2 901C1291 901 1235 901 1179 901C1123 901 1067 901 1010.8 901C954.7 901 898.3 901 842.2 901C786 901 730 901 673.8 901C617.7 901 561.3 901 505.2 901C449 901 393 901 336.8 901C280.7 901 224.3 901 168.2 901C112 901 56 901 28 901L0 901Z" fill="#3e3d32"></path><path d="M0 526L28 552.2C56 578.3 112 630.7 168.2 652.5C224.3 674.3 280.7 665.7 336.8 637.7C393 609.7 449 562.3 505.2 548.8C561.3 535.3 617.7 555.7 673.8 556.3C730 557 786 538 842.2 552.7C898.3 567.3 954.7 615.7 1010.8 624.5C1067 633.3 1123 602.7 1179 576.5C1235 550.3 1291 528.7 1347.2 529.3C1403.3 530 1459.7 553 1515.8 577.5C1572 602 1628 628 1684.2 633.7C1740.3 639.3 1796.7 624.7 1852.8 626C1909 627.3 1965 644.7 2021 637C2077 629.3 2133 596.7 2189.2 584.8C2245.3 573 2301.7 582 2357.8 576.7C2414 571.3 2470 551.7 2526.2 558.5C2582.3 565.3 2638.7 598.7 2694.8 618.8C2751 639 2807 646 2863.2 642C2919.3 638 2975.7 623 3031.8 624.5C3088 626 3144 644 3172 653L3200 662L3200 901L3172 901C3144 901 3088 901 3031.8 901C2975.7 901 2919.3 901 2863.2 901C2807 901 2751 901 2694.8 901C2638.7 901 2582.3 901 2526.2 901C2470 901 2414 901 2357.8 901C2301.7 901 2245.3 901 2189.2 901C2133 901 2077 901 2021 901C1965 901 1909 901 1852.8 901C1796.7 901 1740.3 901 1684.2 901C1628 901 1572 901 1515.8 901C1459.7 901 1403.3 901 1347.2 901C1291 901 1235 901 1179 901C1123 901 1067 901 1010.8 901C954.7 901 898.3 901 842.2 901C786 901 730 901 673.8 901C617.7 901 561.3 901 505.2 901C449 901 393 901 336.8 901C280.7 901 224.3 901 168.2 901C112 901 56 901 28 901L0 901Z" fill="#3e3d32"></path><path d="M0 664L28 664.3C56 664.7 112 665.3 168.2 666C224.3 666.7 280.7 667.3 336.8 653.5C393 639.7 449 611.3 505.2 610.8C561.3 610.3 617.7 637.7 673.8 638.7C730 639.7 786 614.3 842.2 606.3C898.3 598.3 954.7 607.7 1010.8 615C1067 622.3 1123 627.7 1179 633.5C1235 639.3 1291 645.7 1347.2 655C1403.3 664.3 1459.7 676.7 1515.8 686.3C1572 696 1628 703 1684.2 698.7C1740.3 694.3 1796.7 678.7 1852.8 658.8C1909 639 1965 615 2021 626.8C2077 638.7 2133 686.3 2189.2 691.3C2245.3 696.3 2301.7 658.7 2357.8 645.7C2414 632.7 2470 644.3 2526.2 639.8C2582.3 635.3 2638.7 614.7 2694.8 627.3C2751 640 2807 686 2863.2 704C2919.3 722 2975.7 712 3031.8 703C3088 694 3144 686 3172 682L3200 678L3200 901L3172 901C3144 901 3088 901 3031.8 901C2975.7 901 2919.3 901 2863.2 901C2807 901 2751 901 2694.8 901C2638.7 901 2582.3 901 2526.2 901C2470 901 2414 901 2357.8 901C2301.7 901 2245.3 901 2189.2 901C2133 901 2077 901 2021 901C1965 901 1909 901 1852.8 901C1796.7 901 1740.3 901 1684.2 901C1628 901 1572 901 1515.8 901C1459.7 901 1403.3 901 1347.2 901C1291 901 1235 901 1179 901C1123 901 1067 901 1010.8 901C954.7 901 898.3 901 842.2 901C786 901 730 901 673.8 901C617.7 901 561.3 901 505.2 901C449 901 393 901 336.8 901C280.7 901 224.3 901 168.2 901C112 901 56 901 28 901L0 901Z" fill="#3a392f"></path><path d="M0 678L28 673.8C56 669.7 112 661.3 168.2 670C224.3 678.7 280.7 704.3 336.8 702C393 699.7 449 669.3 505.2 656.2C561.3 643 617.7 647 673.8 656.3C730 665.7 786 680.3 842.2 684C898.3 687.7 954.7 680.3 1010.8 690.3C1067 700.3 1123 727.7 1179 734.8C1235 742 1291 729 1347.2 721.5C1403.3 714 1459.7 712 1515.8 704.8C1572 697.7 1628 685.3 1684.2 671.2C1740.3 657 1796.7 641 1852.8 658C1909 675 1965 725 2021 741.5C2077 758 2133 741 2189.2 717C2245.3 693 2301.7 662 2357.8 656.2C2414 650.3 2470 669.7 2526.2 681C2582.3 692.3 2638.7 695.7 2694.8 688.5C2751 681.3 2807 663.7 2863.2 653.5C2919.3 643.3 2975.7 640.7 3031.8 648.7C3088 656.7 3144 675.3 3172 684.7L3200 694L3200 901L3172 901C3144 901 3088 901 3031.8 901C2975.7 901 2919.3 901 2863.2 901C2807 901 2751 901 2694.8 901C2638.7 901 2582.3 901 2526.2 901C2470 901 2414 901 2357.8 901C2301.7 901 2245.3 901 2189.2 901C2133 901 2077 901 2021 901C1965 901 1909 901 1852.8 901C1796.7 901 1740.3 901 1684.2 901C1628 901 1572 901 1515.8 901C1459.7 901 1403.3 901 1347.2 901C1291 901 1235 901 1179 901C1123 901 1067 901 1010.8 901C954.7 901 898.3 901 842.2 901C786 901 730 901 673.8 901C617.7 901 561.3 901 505.2 901C449 901 393 901 336.8 901C280.7 901 224.3 901 168.2 901C112 901 56 901 28 901L0 901Z" fill="#33332b"></path><path d="M0 701L28 702.5C56 704 112 707 168.2 715.7C224.3 724.3 280.7 738.7 336.8 737.7C393 736.7 449 720.3 505.2 732C561.3 743.7 617.7 783.3 673.8 793.3C730 803.3 786 783.7 842.2 767.7C898.3 751.7 954.7 739.3 1010.8 748.2C1067 757 1123 787 1179 796.7C1235 806.3 1291 795.7 1347.2 785.3C1403.3 775 1459.7 765 1515.8 759.5C1572 754 1628 753 1684.2 761.3C1740.3 769.7 1796.7 787.3 1852.8 782.2C1909 777 1965 749 2021 741C2077 733 2133 745 2189.2 742.5C2245.3 740 2301.7 723 2357.8 730.8C2414 738.7 2470 771.3 2526.2 790.7C2582.3 810 2638.7 816 2694.8 811.8C2751 807.7 2807 793.3 2863.2 780.8C2919.3 768.3 2975.7 757.7 3031.8 762.7C3088 767.7 3144 788.3 3172 798.7L3200 809L3200 901L3172 901C3144 901 3088 901 3031.8 901C2975.7 901 2919.3 901 2863.2 901C2807 901 2751 901 2694.8 901C2638.7 901 2582.3 901 2526.2 901C2470 901 2414 901 2357.8 901C2301.7 901 2245.3 901 2189.2 901C2133 901 2077 901 2021 901C1965 901 1909 901 1852.8 901C1796.7 901 1740.3 901 1684.2 901C1628 901 1572 901 1515.8 901C1459.7 901 1403.3 901 1347.2 901C1291 901 1235 901 1179 901C1123 901 1067 901 1010.8 901C954.7 901 898.3 901 842.2 901C786 901 730 901 673.8 901C617.7 901 561.3 901 505.2 901C449 901 393 901 336.8 901C280.7 901 224.3 901 168.2 901C112 901 56 901 28 901L0 901Z" fill="#2d2e26"></path><path d="M0 778L28 789.7C56 801.3 112 824.7 168.2 832C224.3 839.3 280.7 830.7 336.8 825C393 819.3 449 816.7 505.2 820.2C561.3 823.7 617.7 833.3 673.8 839.8C730 846.3 786 849.7 842.2 843.8C898.3 838 954.7 823 1010.8 819.2C1067 815.3 1123 822.7 1179 822.3C1235 822 1291 814 1347.2 815C1403.3 816 1459.7 826 1515.8 830.5C1572 835 1628 834 1684.2 823C1740.3 812 1796.7 791 1852.8 787.2C1909 783.3 1965 796.7 2021 798.3C2077 800 2133 790 2189.2 787.8C2245.3 785.7 2301.7 791.3 2357.8 805.3C2414 819.3 2470 841.7 2526.2 849.5C2582.3 857.3 2638.7 850.7 2694.8 847.2C2751 843.7 2807 843.3 2863.2 846.7C2919.3 850 2975.7 857 3031.8 847.7C3088 838.3 3144 812.7 3172 799.8L3200 787L3200 901L3172 901C3144 901 3088 901 3031.8 901C2975.7 901 2919.3 901 2863.2 901C2807 901 2751 901 2694.8 901C2638.7 901 2582.3 901 2526.2 901C2470 901 2414 901 2357.8 901C2301.7 901 2245.3 901 2189.2 901C2133 901 2077 901 2021 901C1965 901 1909 901 1852.8 901C1796.7 901 1740.3 901 1684.2 901C1628 901 1572 901 1515.8 901C1459.7 901 1403.3 901 1347.2 901C1291 901 1235 901 1179 901C1123 901 1067 901 1010.8 901C954.7 901 898.3 901 842.2 901C786 901 730 901 673.8 901C617.7 901 561.3 901 505.2 901C449 901 393 901 336.8 901C280.7 901 224.3 901 168.2 901C112 901 56 901 28 901L0 901Z" fill="#272822"></path></svg>